<?xml version="1.0" encoding="UTF-8" standalone="no"?>
<!-- Created with Inkscape (http://www.inkscape.org/) -->

<svg
   width="1280"
   height="640"
   viewBox="0 0 338.66666 169.33333"
   version="1.1"
   id="svg1"
   sodipodi:docname="ellip-logo.svg"
   inkscape:export-filename="ellip-logo.png"
   inkscape:export-xdpi="96"
   inkscape:export-ydpi="96"
   inkscape:version="1.4 (e7c3feb100, 2024-10-09)"
   xmlns:inkscape="http://www.inkscape.org/namespaces/inkscape"
   xmlns:sodipodi="http://sodipodi.sourceforge.net/DTD/sodipodi-0.dtd"
   xmlns="http://www.w3.org/2000/svg"
   xmlns:svg="http://www.w3.org/2000/svg"
   xmlns:rdf="http://www.w3.org/1999/02/22-rdf-syntax-ns#"
   xmlns:cc="http://creativecommons.org/ns#">
  <sodipodi:namedview
     id="namedview1"
     pagecolor="#ffffff"
     bordercolor="#000000"
     borderopacity="0.25"
     inkscape:showpageshadow="2"
     inkscape:pageopacity="0.0"
     inkscape:pagecheckerboard="0"
     inkscape:deskcolor="#d1d1d1"
     inkscape:document-units="mm"
     inkscape:zoom="0.7483547"
     inkscape:cx="1350.2955"
     inkscape:cy="438.96297"
     inkscape:window-width="1239"
     inkscape:window-height="782"
     inkscape:window-x="0"
     inkscape:window-y="0"
     inkscape:window-maximized="1"
     inkscape:current-layer="layer1">
    <inkscape:page
       x="0"
       y="0"
       width="338.66666"
       height="169.33333"
       id="page2"
       margin="0"
       bleed="0" />
  </sodipodi:namedview>
  <defs
     id="defs1" />
  <g
     id="layer1"
     transform="matrix(2.8340418,0,0,2.8340418,-127.97598,-328.46502)"
     style="stroke-width:0.352853">
    <path
       id="path1"
       style="fill:#3300e3;fill-opacity:1;stroke:none;stroke-width:0.0935057;stroke-linecap:round"
       d="M 55.042181 133.74728 C 54.91773 134.40629 54.834122 135.06756 54.791643 135.72989 C 54.791617 151.30744 77.364152 163.94174 104.83207 164.02478 L 104.83207 164.02605 C 104.84454 164.02603 104.8568 164.02554 104.86927 164.02551 C 104.88174 164.02554 104.894 164.02603 104.90647 164.02605 L 104.90647 164.02478 C 132.37468 163.94174 154.94747 151.30744 154.94744 135.72989 C 154.90496 135.06756 154.82136 134.40629 154.69691 133.74728 C 154.69694 149.35146 132.40004 162.00425 104.86927 162.04436 C 77.33879 162.0042 55.042155 149.35146 55.042181 133.74728 z " />
    <path
       id="path6"
       style="fill:#2d00c8;fill-opacity:1;stroke:none;stroke-width:0.0935057;stroke-linecap:round;stroke-opacity:1"
       d="M 55.042181 133.74728 C 55.042142 149.3444 77.3188 161.99225 104.83207 162.04382 L 104.83207 162.04491 C 104.84455 162.0449 104.8568 162.04438 104.86927 162.04436 C 104.88174 162.04438 104.89399 162.0449 104.90647 162.04491 L 104.90647 162.04382 C 132.42003 161.99225 154.69695 149.3444 154.69691 133.74728 C 152.7015 148.43846 130.86745 158.4814 104.86927 158.55234 C 78.871369 158.48139 57.037586 148.43846 55.042181 133.74728 z " />
    <path
       style="font-size:25.4px;font-family:'Hi.';-inkscape-font-specification:'Hi.';text-align:center;text-anchor:middle;fill:#2d00c8;stroke-width:0.093506;stroke-linecap:round;fill-opacity:1"
       d="m 82.622576,144.5376 c 0.3556,-0.3302 0.2286,-0.9906 -0.2286,-1.3208 -0.4572,-0.381 -0.9652,-0.3048 -1.2954,-0.0508 l -3.175,2.4384 c -2.2352,1.7272 -5.6134,0.8636 -7.2644,-1.0922 -0.1524,-0.2032 -0.2794,-0.381 -0.4064,-0.5842 -1.3716,-2.3368 -0.4064,-5.6388 2.3368,-7.1628 2.2352,-1.27 4.5974,-0.4572 6.731,0.5334 -0.0762,0.4572 -3.0226,2.6162 -3.683,3.2004 -0.381,0.3048 -0.381,0.889 0,1.3462 0.381,0.4826 1.0668,0.381 1.397,0.1016 1.778,-1.3462 3.4798,-2.7432 5.08,-4.2418 0.381,-0.3556 0.1016,-0.8128 -0.2286,-1.1684 -0.3302,-0.3556 -0.7874,-0.7112 -1.0414,-0.9398 -2.4638,-2.159 -6.2992,-2.6162 -9.4488,-0.8636 -3.81,2.1336 -5.1816,6.7564 -3.0988,10.3124 2.1082,3.556 7.3914,4.4958 10.8712,2.4384 2.2606,-1.397 1.8796,-1.4224 3.4544,-2.9464 z m 4.826011,-10.1854 c -0.0254,-0.4826 -0.508,-0.8382 -1.0668,-0.8382 -0.5842,0 -1.0668,0.3556 -1.0922,0.8382 l -0.2032,6.6548 v 0 c 0.254,4.1148 3.4036,7.493 7.7978,7.493 4.1148,0 6.858,0 6.858,0 0.482603,0 0.838203,-0.508 0.838203,-1.0668 0,-0.5842 -0.3556,-1.0668 -0.838203,-1.0668 0,0 -4.0132,0 -6.858,0 -2.8956,0 -5.461,-2.413 -5.461,-5.3594 0,-2.6924 0,-5.8674 0.0254,-6.5278 z m 17.805403,0 c -0.0254,-0.4826 -0.508,-0.8382 -1.0668,-0.8382 -0.5842,0 -1.0668,0.3556 -1.0922,0.8382 l -0.2032,6.6548 v 0 c 0.254,4.1148 3.4036,7.493 7.7978,7.493 4.1148,0 6.858,0 6.858,0 0.4826,0 0.8382,-0.508 0.8382,-1.0668 0,-0.5842 -0.3556,-1.0668 -0.8382,-1.0668 0,0 -4.0132,0 -6.858,0 -2.8956,0 -5.461,-2.413 -5.461,-5.3594 0,-2.6924 0,-5.8674 0.0254,-6.5278 z m 17.98321,-0.1016 c 0,-0.4064 -0.4826,-0.7366 -1.0668,-0.7366 -0.5588,0 -1.0414,0.3048 -1.0668,0.7366 0,0 0,13.5382 0,13.5382 0,0.4064 0.4826,0.7112 1.0668,0.7112 0.5842,0 1.0668,-0.2794 1.0668,-0.7112 z m 4.16562,16.9926 c 0.4064,0 0.9906,-0.0508 0.9906,-0.4064 v -4.699 c 1.4478,1.4478 3.556,2.3622 5.8928,2.3622 4.445,0 8.001,-3.302 8.001,-7.4168 0,-4.1148 -3.556,-7.4422 -8.001,-7.4422 -4.4704,0 -8.0264,3.3528 -8.0264,7.4676 v 9.7028 c 0,0.381 0.7112,0.4318 1.143,0.4318 z m 6.8834,-5.08 c -3.2004,0 -5.7912,-2.3876 -5.7912,-5.08 0,-2.6924 2.5908,-5.08 5.7912,-5.08 3.175,0 5.7658,2.3876 5.7658,5.08 0,2.6924 -2.5908,5.08 -5.7658,5.08 z"
       id="text1"
       aria-label="ELLIP" />
  </g>
  <metadata
     id="metadata1">
    <rdf:RDF>
      <cc:License
         rdf:about="http://creativecommons.org/licenses/by-nd/4.0/">
        <cc:permits
           rdf:resource="http://creativecommons.org/ns#Reproduction" />
        <cc:permits
           rdf:resource="http://creativecommons.org/ns#Distribution" />
        <cc:requires
           rdf:resource="http://creativecommons.org/ns#Notice" />
        <cc:requires
           rdf:resource="http://creativecommons.org/ns#Attribution" />
      </cc:License>
      <cc:Work
         rdf:about="">
        <cc:license
           rdf:resource="http://creativecommons.org/licenses/by-nd/4.0/" />
      </cc:Work>
    </rdf:RDF>
  </metadata>
</svg>
