<svg class="main-svg" xmlns="http://www.w3.org/2000/svg" xmlns:xlink="http://www.w3.org/1999/xlink" width="900" height="600" style="" viewBox="0 0 900 600"><rect x="0" y="0" width="900" height="600" style="fill: rgb(255, 255, 255); fill-opacity: 1;"/><defs id="defs-9a44f9"><g class="clips"><clipPath id="clip9a44f9xyplot" class="plotclip"><rect width="704" height="420"/></clipPath><clipPath class="axesclip" id="clip9a44f9x"><rect x="80" y="0" width="704" height="600"/></clipPath><clipPath class="axesclip" id="clip9a44f9y"><rect x="0" y="100" width="900" height="420"/></clipPath><clipPath class="axesclip" id="clip9a44f9xy"><rect x="80" y="100" width="704" height="420"/></clipPath></g><g class="gradients"/></defs><g class="bglayer"/><g class="layer-below"><g class="imagelayer"/><g class="shapelayer"/></g><g class="cartesianlayer"><g class="subplot xy"><g class="layer-subplot"><g class="shapelayer"/><g class="imagelayer"/></g><g class="gridlayer"><g class="x"><path class="xgrid crisp" transform="translate(220.8,0)" d="M0,100v420" style="stroke: rgb(238, 238, 238); stroke-opacity: 1; stroke-width: 1px;"/><path class="xgrid crisp" transform="translate(361.6,0)" d="M0,100v420" style="stroke: rgb(238, 238, 238); stroke-opacity: 1; stroke-width: 1px;"/><path class="xgrid crisp" transform="translate(502.4,0)" d="M0,100v420" style="stroke: rgb(238, 238, 238); stroke-opacity: 1; stroke-width: 1px;"/><path class="xgrid crisp" transform="translate(643.2,0)" d="M0,100v420" style="stroke: rgb(238, 238, 238); stroke-opacity: 1; stroke-width: 1px;"/></g><g class="y"><path class="ygrid crisp" transform="translate(0,415)" d="M80,0h704" style="stroke: rgb(238, 238, 238); stroke-opacity: 1; stroke-width: 1px;"/><path class="ygrid crisp" transform="translate(0,310)" d="M80,0h704" style="stroke: rgb(238, 238, 238); stroke-opacity: 1; stroke-width: 1px;"/><path class="ygrid crisp" transform="translate(0,205)" d="M80,0h704" style="stroke: rgb(238, 238, 238); stroke-opacity: 1; stroke-width: 1px;"/></g></g><g class="zerolinelayer"/><path class="xlines-below"/><path class="ylines-below"/><g class="overlines-below"/><g class="xaxislayer-below"/><g class="yaxislayer-below"/><g class="overaxes-below"/><g class="plot" transform="translate(80,100)" clip-path="url('#clip9a44f9xyplot')"><g class="scatterlayer mlayer"><g class="trace scatter tracea9c7fc" style="stroke-miterlimit: 2; opacity: 1;"><g class="fills"/><g class="errorbars"/><g class="lines"><path class="js-line" d="M1.41,-1285.23L16.9,-562.15L18.3,-540.85L38.02,-355.52L39.42,-346.78L61.95,-242.35L63.36,-237.38L85.89,-172.11L87.3,-168.73L109.82,-122.33L111.23,-119.82L133.76,-84.38L135.17,-82.41L157.7,-54.07L159.1,-52.47L181.63,-29.06L183.04,-27.72L204.16,-9.08L205.57,-7.92L226.69,8.27L228.1,9.28L249.22,23.53L250.62,24.42L274.56,38.69L275.97,39.48L301.31,52.84L302.72,53.54L333.7,67.91L335.1,68.53L371.71,83.32L373.12,83.86L413.95,98.17L415.36,98.63L454.78,110.72L456.19,111.13L505.47,124.35L506.88,124.7L558.98,136.87L560.38,137.18L612.48,147.87L613.89,148.14L678.66,159.79L680.06,160.03L704,163.95" style="vector-effect: non-scaling-stroke; fill: none; stroke: rgb(255, 0, 0); stroke-opacity: 1; stroke-width: 2px; opacity: 1;"/></g><g class="points"/><g class="text"/></g><g class="trace scatter trace026781" style="stroke-miterlimit: 2; opacity: 1;"><g class="fills"/><g class="errorbars"/><g class="lines"><path class="js-line" d="M0,-611.32L8.45,-281.57L9.86,-264.03L22.53,-163.15L23.94,-155.41L36.61,-100.48L38.02,-95.57L50.69,-58.13L52.1,-54.58L64.77,-26.46L66.18,-23.7L77.44,-3.64L78.85,-1.35L91.52,17.4L92.93,19.31L107.01,36.77L108.42,38.38L122.5,53.23L123.9,54.61L140.8,69.87L142.21,71.04L160.51,85.2L161.92,86.2L181.63,99.35L183.04,100.22L204.16,112.44L205.57,113.2L230.91,125.9L232.32,126.55L257.66,137.59L259.07,138.16L285.82,148.39L287.23,148.9L322.43,160.61L323.84,161.05L363.26,172.35L364.67,172.72L402.69,182.2L404.1,182.53L447.74,192.06L449.15,192.34L498.43,201.73L499.84,201.98L558.98,211.74L560.38,211.95L619.52,220.42L620.93,220.61L692.74,229.54L694.14,229.71L704,230.84" style="vector-effect: non-scaling-stroke; fill: none; stroke: rgb(255, 127, 14); stroke-opacity: 1; stroke-width: 2px; opacity: 1;"/></g><g class="points"/><g class="text"/></g><g class="trace scatter trace5fb39d" style="stroke-miterlimit: 2; opacity: 1;"><g class="fills"/><g class="errorbars"/><g class="lines"><path class="js-line" d="M0,-74.8L1.41,-18.47L2.82,1.5L5.63,27.01L7.04,36.49L11.26,58.48L12.67,64.42L18.3,83.98L19.71,88.1L26.75,105.66L28.16,108.69L36.61,124.54L38.02,126.86L47.87,141.21L49.28,143.03L60.54,156.08L61.95,157.55L74.62,169.46L76.03,170.66L91.52,182.56L92.93,183.53L108.42,193.41L109.82,194.23L129.54,204.73L130.94,205.42L154.88,215.98L156.29,216.55L181.63,225.87L183.04,226.35L214.02,235.89L215.42,236.28L246.4,244.32L247.81,244.66L291.46,254.15L292.86,254.43L346.37,263.96L347.78,264.19L395.65,271.31L397.06,271.51L464.64,279.93L466.05,280.09L537.86,287.51L539.26,287.64L637.82,296L639.23,296.11L704,300.75" style="vector-effect: non-scaling-stroke; fill: none; stroke: rgb(44, 160, 44); stroke-opacity: 1; stroke-width: 2px; opacity: 1;"/></g><g class="points"/><g class="text"/></g><g class="trace scatter tracee4fea3" style="stroke-miterlimit: 2; opacity: 1;"><g class="fills"/><g class="errorbars"/><g class="lines"><path class="js-line" d="M0,163.95L1.41,189.45L2.82,198.65L7.04,214.98L8.45,218.86L14.08,230.84L15.49,233.25L22.53,243.28L23.94,244.98L32.38,253.74L33.79,255.01L45.06,263.8L46.46,264.76L59.14,272.39L60.54,273.14L76.03,280.51L77.44,281.11L95.74,288.06L97.15,288.54L121.09,295.79L122.5,296.17L149.25,302.66L150.66,302.97L181.63,309.07L183.04,309.33L232.32,317L233.73,317.19L287.23,323.68L288.64,323.83L356.22,330.29L357.63,330.41L433.66,336.14L435.07,336.24L556.16,343.26L557.57,343.34L688.51,349.1L689.92,349.15L704,349.69" style="vector-effect: non-scaling-stroke; fill: none; stroke: rgb(0, 0, 255); stroke-opacity: 1; stroke-width: 2px; opacity: 1;"/></g><g class="points"/><g class="text"/></g><g class="trace scatter trace82bd56" style="stroke-miterlimit: 2; opacity: 1;"><g class="fills"/><g class="errorbars"/><g class="lines"><path class="js-line" d="M0,297.96L1.41,309.4L2.82,313.55L7.04,320.94L8.45,322.69L14.08,328.15L15.49,329.25L23.94,334.62L25.34,335.36L36.61,340.33L38.02,340.86L53.5,345.78L54.91,346.16L77.44,351.31L78.85,351.59L107.01,356.27L108.42,356.47L145.02,360.97L146.43,361.12L194.3,365.48L195.71,365.59L261.89,370.02L263.3,370.1L350.59,374.34L352,374.4L457.6,378.15L459.01,378.2L653.31,383L654.72,383.03L704,383.98" style="vector-effect: non-scaling-stroke; fill: none; stroke: rgb(148, 103, 189); stroke-opacity: 1; stroke-width: 2px; opacity: 1;"/></g><g class="points"/><g class="text"/></g></g></g><g class="overplot"/><path class="xlines-above crisp" d="M79,520.5H784" style="fill: none; stroke-width: 1px; stroke: rgb(68, 68, 68); stroke-opacity: 1;"/><path class="ylines-above crisp" d="M79.5,100V520" style="fill: none; stroke-width: 1px; stroke: rgb(68, 68, 68); stroke-opacity: 1;"/><g class="overlines-above"/><g class="xaxislayer-above"><g class="xtick"><text text-anchor="middle" x="0" y="535.4" transform="translate(80,0)" style="font-family: 'Open Sans', verdana, arial, sans-serif; font-size: 12px; fill: rgb(68, 68, 68); fill-opacity: 1; white-space: pre;">0</text></g><g class="xtick"><text text-anchor="middle" x="0" y="535.4" transform="translate(220.8,0)" style="font-family: 'Open Sans', verdana, arial, sans-serif; font-size: 12px; fill: rgb(68, 68, 68); fill-opacity: 1; white-space: pre;">1</text></g><g class="xtick"><text text-anchor="middle" x="0" y="535.4" transform="translate(361.6,0)" style="font-family: 'Open Sans', verdana, arial, sans-serif; font-size: 12px; fill: rgb(68, 68, 68); fill-opacity: 1; white-space: pre;">2</text></g><g class="xtick"><text text-anchor="middle" x="0" y="535.4" transform="translate(502.4,0)" style="font-family: 'Open Sans', verdana, arial, sans-serif; font-size: 12px; fill: rgb(68, 68, 68); fill-opacity: 1; white-space: pre;">3</text></g><g class="xtick"><text text-anchor="middle" x="0" y="535.4" transform="translate(643.2,0)" style="font-family: 'Open Sans', verdana, arial, sans-serif; font-size: 12px; fill: rgb(68, 68, 68); fill-opacity: 1; white-space: pre;">4</text></g><g class="xtick"><text text-anchor="middle" x="0" y="535.4" transform="translate(784,0)" style="font-family: 'Open Sans', verdana, arial, sans-serif; font-size: 12px; fill: rgb(68, 68, 68); fill-opacity: 1; white-space: pre;">5</text></g></g><g class="yaxislayer-above"><g class="ytick"><text text-anchor="end" x="76.6" y="4.199999999999999" transform="translate(0,520)" style="font-family: 'Open Sans', verdana, arial, sans-serif; font-size: 12px; fill: rgb(68, 68, 68); fill-opacity: 1; white-space: pre;">0</text></g><g class="ytick"><text text-anchor="end" x="76.6" y="4.199999999999999" transform="translate(0,415)" style="font-family: 'Open Sans', verdana, arial, sans-serif; font-size: 12px; fill: rgb(68, 68, 68); fill-opacity: 1; white-space: pre;">0.5</text></g><g class="ytick"><text text-anchor="end" x="76.6" y="4.199999999999999" transform="translate(0,310)" style="font-family: 'Open Sans', verdana, arial, sans-serif; font-size: 12px; fill: rgb(68, 68, 68); fill-opacity: 1; white-space: pre;">1</text></g><g class="ytick"><text text-anchor="end" x="76.6" y="4.199999999999999" transform="translate(0,205)" style="font-family: 'Open Sans', verdana, arial, sans-serif; font-size: 12px; fill: rgb(68, 68, 68); fill-opacity: 1; white-space: pre;">1.5</text></g><g class="ytick"><text text-anchor="end" x="76.6" y="4.199999999999999" transform="translate(0,100)" style="font-family: 'Open Sans', verdana, arial, sans-serif; font-size: 12px; fill: rgb(68, 68, 68); fill-opacity: 1; white-space: pre;">2</text></g></g><g class="overaxes-above"/></g></g><g class="polarlayer"/><g class="ternarylayer"/><g class="geolayer"/><g class="funnelarealayer"/><g class="pielayer"/><g class="treemaplayer"/><g class="sunburstlayer"/><g class="glimages"/><defs id="topdefs-9a44f9"><g class="clips"/><clipPath id="legend9a44f9"><rect width="90" height="105" x="0" y="0"/></clipPath></defs><g class="layer-above"><g class="imagelayer"/><g class="shapelayer"/></g><g class="infolayer"><g class="legend" pointer-events="all" transform="translate(798.08,100)"><rect class="bg" shape-rendering="crispEdges" style="stroke: rgb(68, 68, 68); stroke-opacity: 1; fill: rgb(255, 255, 255); fill-opacity: 1; stroke-width: 0px;" width="90" height="105" x="0" y="0"/><g class="scrollbox" transform="" clip-path="url('#legend9a44f9')"><g class="groups"><g class="traces" transform="translate(0,14.5)" style="opacity: 1;"><text class="legendtext" text-anchor="start" x="40" y="4.680000000000001" style="font-family: 'Open Sans', verdana, arial, sans-serif; font-size: 12px; fill: rgb(68, 68, 68); fill-opacity: 1; white-space: pre;">y=0</text><g class="layers" style="opacity: 1;"><g class="legendfill"/><g class="legendlines"><path class="js-line" d="M5,0h30" style="fill: none; stroke: rgb(255, 0, 0); stroke-opacity: 1; stroke-width: 2px;"/></g><g class="legendsymbols"><g class="legendpoints"/></g></g><rect class="legendtoggle" x="0" y="-9.5" width="85" height="19" style="fill: rgb(0, 0, 0); fill-opacity: 0;"/></g><g class="traces" transform="translate(0,33.5)" style="opacity: 1;"><text class="legendtext" text-anchor="start" x="40" y="4.680000000000001" style="font-family: 'Open Sans', verdana, arial, sans-serif; font-size: 12px; fill: rgb(68, 68, 68); fill-opacity: 1; white-space: pre;">y=0.1</text><g class="layers" style="opacity: 1;"><g class="legendfill"/><g class="legendlines"><path class="js-line" d="M5,0h30" style="fill: none; stroke: rgb(255, 127, 14); stroke-opacity: 1; stroke-width: 2px;"/></g><g class="legendsymbols"><g class="legendpoints"/></g></g><rect class="legendtoggle" x="0" y="-9.5" width="85" height="19" style="fill: rgb(0, 0, 0); fill-opacity: 0;"/></g><g class="traces" transform="translate(0,52.5)" style="opacity: 1;"><text class="legendtext" text-anchor="start" x="40" y="4.680000000000001" style="font-family: 'Open Sans', verdana, arial, sans-serif; font-size: 12px; fill: rgb(68, 68, 68); fill-opacity: 1; white-space: pre;">y=1.0</text><g class="layers" style="opacity: 1;"><g class="legendfill"/><g class="legendlines"><path class="js-line" d="M5,0h30" style="fill: none; stroke: rgb(44, 160, 44); stroke-opacity: 1; stroke-width: 2px;"/></g><g class="legendsymbols"><g class="legendpoints"/></g></g><rect class="legendtoggle" x="0" y="-9.5" width="85" height="19" style="fill: rgb(0, 0, 0); fill-opacity: 0;"/></g><g class="traces" transform="translate(0,71.5)" style="opacity: 1;"><text class="legendtext" text-anchor="start" x="40" y="4.680000000000001" style="font-family: 'Open Sans', verdana, arial, sans-serif; font-size: 12px; fill: rgb(68, 68, 68); fill-opacity: 1; white-space: pre;">y=5.0</text><g class="layers" style="opacity: 1;"><g class="legendfill"/><g class="legendlines"><path class="js-line" d="M5,0h30" style="fill: none; stroke: rgb(0, 0, 255); stroke-opacity: 1; stroke-width: 2px;"/></g><g class="legendsymbols"><g class="legendpoints"/></g></g><rect class="legendtoggle" x="0" y="-9.5" width="85" height="19" style="fill: rgb(0, 0, 0); fill-opacity: 0;"/></g><g class="traces" transform="translate(0,90.5)" style="opacity: 1;"><text class="legendtext" text-anchor="start" x="40" y="4.680000000000001" style="font-family: 'Open Sans', verdana, arial, sans-serif; font-size: 12px; fill: rgb(68, 68, 68); fill-opacity: 1; white-space: pre;">y=25.0</text><g class="layers" style="opacity: 1;"><g class="legendfill"/><g class="legendlines"><path class="js-line" d="M5,0h30" style="fill: none; stroke: rgb(148, 103, 189); stroke-opacity: 1; stroke-width: 2px;"/></g><g class="legendsymbols"><g class="legendpoints"/></g></g><rect class="legendtoggle" x="0" y="-9.5" width="85" height="19" style="fill: rgb(0, 0, 0); fill-opacity: 0;"/></g></g></g><rect class="scrollbar" rx="20" ry="3" width="0" height="0" style="fill: rgb(128, 139, 164); fill-opacity: 1;" x="0" y="0"/></g><g class="g-gtitle"><text class="gtitle" x="450" y="50" text-anchor="middle" dy="0em" style="font-family: 'Open Sans', verdana, arial, sans-serif; font-size: 17px; fill: rgb(68, 68, 68); opacity: 1; font-weight: normal; white-space: pre;">Degenerate Symmetric Elliptic Integral of the Third Kind (RD)</text></g><g class="g-xtitle"><text class="xtitle" x="432" y="572" text-anchor="middle" style="font-family: 'Open Sans', verdana, arial, sans-serif; font-size: 14px; fill: rgb(68, 68, 68); opacity: 1; font-weight: normal; white-space: pre;">x</text></g><g class="g-ytitle"><text class="ytitle" transform="rotate(-90,42,310)" x="42" y="310" text-anchor="middle" style="font-family: 'Open Sans', verdana, arial, sans-serif; font-size: 14px; fill: rgb(68, 68, 68); opacity: 1; font-weight: normal; white-space: pre;">RD(x,y,1)</text></g><g class="annotation" data-index="0" style="opacity: 1;"><g class="annotation-text-g" transform="rotate(0,680.32,574)"><g class="cursor-pointer" transform="translate(520,565)"><rect class="bg" x="0.5" y="0.5" width="319" height="17" style="stroke-width: 1px; stroke: rgb(0, 0, 0); stroke-opacity: 0; fill: rgb(0, 0, 0); fill-opacity: 0;"/><text class="annotation-text" text-anchor="middle" x="160" y="14" style="font-family: 'Open Sans', verdana, arial, sans-serif; font-size: 12px; fill: rgb(68, 68, 68); fill-opacity: 1; white-space: pre; pointer-events: all;">Generated using the function <a xlink:show="new" target="_blank" xlink:href="https://docs.rs/ellip/latest/ellip/carlson/fn.elliprd.html" style="cursor:pointer">elliprd</a> from <a xlink:show="new" target="_blank" xlink:href="https://crates.io/crates/ellip" style="cursor:pointer">ellip</a> v0.3.1</text></g></g></g></g></svg>