<svg class="main-svg" xmlns="http://www.w3.org/2000/svg" xmlns:xlink="http://www.w3.org/1999/xlink" width="900" height="600" style="" viewBox="0 0 900 600"><rect x="0" y="0" width="900" height="600" style="fill: rgb(255, 255, 255); fill-opacity: 1;"/><defs id="defs-74cc03"><g class="clips"><clipPath id="clip74cc03xyplot" class="plotclip"><rect width="691" height="420"/></clipPath><clipPath class="axesclip" id="clip74cc03x"><rect x="80" y="0" width="691" height="600"/></clipPath><clipPath class="axesclip" id="clip74cc03y"><rect x="0" y="100" width="900" height="420"/></clipPath><clipPath class="axesclip" id="clip74cc03xy"><rect x="80" y="100" width="691" height="420"/></clipPath></g><g class="gradients"/></defs><g class="bglayer"/><g class="layer-below"><g class="imagelayer"/><g class="shapelayer"/></g><g class="cartesianlayer"><g class="subplot xy"><g class="layer-subplot"><g class="shapelayer"/><g class="imagelayer"/></g><g class="gridlayer"><g class="x"><path class="xgrid crisp" transform="translate(195.36,0)" d="M0,100v420" style="stroke: rgb(238, 238, 238); stroke-opacity: 1; stroke-width: 1px;"/><path class="xgrid crisp" transform="translate(310.72,0)" d="M0,100v420" style="stroke: rgb(238, 238, 238); stroke-opacity: 1; stroke-width: 1px;"/><path class="xgrid crisp" transform="translate(541.44,0)" d="M0,100v420" style="stroke: rgb(238, 238, 238); stroke-opacity: 1; stroke-width: 1px;"/><path class="xgrid crisp" transform="translate(656.79,0)" d="M0,100v420" style="stroke: rgb(238, 238, 238); stroke-opacity: 1; stroke-width: 1px;"/></g><g class="y"><path class="ygrid crisp" transform="translate(0,433.63)" d="M80,0h691" style="stroke: rgb(238, 238, 238); stroke-opacity: 1; stroke-width: 1px;"/><path class="ygrid crisp" transform="translate(0,355.01)" d="M80,0h691" style="stroke: rgb(238, 238, 238); stroke-opacity: 1; stroke-width: 1px;"/><path class="ygrid crisp" transform="translate(0,276.39)" d="M80,0h691" style="stroke: rgb(238, 238, 238); stroke-opacity: 1; stroke-width: 1px;"/><path class="ygrid crisp" transform="translate(0,197.76999999999998)" d="M80,0h691" style="stroke: rgb(238, 238, 238); stroke-opacity: 1; stroke-width: 1px;"/><path class="ygrid crisp" transform="translate(0,119.15)" d="M80,0h691" style="stroke: rgb(238, 238, 238); stroke-opacity: 1; stroke-width: 1px;"/></g></g><g class="zerolinelayer"><path class="xzl zl crisp" transform="translate(426.08,0)" d="M0,100v420" style="stroke: rgb(68, 68, 68); stroke-opacity: 1; stroke-width: 1px;"/><path class="yzl zl crisp" transform="translate(0,512.25)" d="M80,0h691" style="stroke: rgb(68, 68, 68); stroke-opacity: 1; stroke-width: 1px;"/></g><path class="xlines-below"/><path class="ylines-below"/><g class="overlines-below"/><g class="xaxislayer-below"/><g class="yaxislayer-below"/><g class="overaxes-below"/><g class="plot" transform="translate(80,100)" clip-path="url('#clip74cc03xyplot')"><g class="scatterlayer mlayer"><g class="trace scatter trace3c87b7" style="stroke-miterlimit: 2; opacity: 1;"><g class="fills"/><g class="errorbars"/><g class="lines"><path class="js-line" d="M0,372.49L57.68,367.74L58.83,367.63L110.74,361.98L111.9,361.83L158.04,355.07L159.2,354.87L192.65,348.33L193.8,348.07L219.18,341.64L220.34,341.31L241.1,334.62L242.25,334.2L258.4,327.65L259.56,327.13L274.55,319.47L275.71,318.81L288.4,310.52L289.55,309.67L299.93,300.96L301.09,299.86L310.32,289.75L311.47,288.29L318.39,278.27L319.54,276.34L325.31,265.15L326.47,262.52L331.08,250.13L332.23,246.41L335.69,233L336.85,227.49L340.31,205.44L341.46,194.95L343.77,162.3L344.92,129.61L345.73,72.82L345.85,53.7L345.96,21" style="vector-effect: non-scaling-stroke; fill: none; stroke: rgb(255, 0, 0); stroke-opacity: 1; stroke-width: 2px; opacity: 1;"/><path class="js-line" d="M346.19,21L347.23,129.61L348.38,162.3L350.69,194.95L351.84,205.44L355.31,227.49L356.46,233L361.07,250.13L362.23,253.56L367.99,267.63L369.15,269.98L376.07,281.88L377.22,283.58L385.3,293.85L386.45,295.12L395.68,304.09L396.83,305.08L408.37,313.76L409.52,314.53L423.37,322.63L424.52,323.22L439.52,330.15L440.67,330.63L459.13,337.4L460.28,337.78L484.51,344.75L485.66,345.04L512.19,351.01L513.35,351.24L545.65,356.96L546.8,357.14L586.02,362.55L587.18,362.69L635.63,367.84L636.78,367.95L691,372.41" style="vector-effect: non-scaling-stroke; fill: none; stroke: rgb(255, 0, 0); stroke-opacity: 1; stroke-width: 2px; opacity: 1;"/></g><g class="points"/><g class="text"/></g><g class="trace scatter trace50b954" style="stroke-miterlimit: 2; opacity: 1;"><g class="fills"/><g class="errorbars"/><g class="lines"><path class="js-line" d="M0,389.18L78.44,384.35L79.6,384.27L134.97,379.2L136.12,379.07L176.5,373.81L177.65,373.64L207.65,368.28L208.8,368.04L235.33,361.58L236.49,361.25L254.94,355.24L256.1,354.81L272.25,347.9L273.4,347.33L286.09,340.2L287.24,339.46L297.63,331.86L298.78,330.9L308.01,322.02L309.16,320.73L316.08,311.9L317.24,310.21L323.01,300.44L324.16,298.16L329.93,284.43L331.08,281.05L335.69,264.15L336.85,258.7L340.31,236.78L341.46,226.32L343.77,193.72L344.92,161.06L345.73,104.27L345.85,85.15L345.96,52.45" style="vector-effect: non-scaling-stroke; fill: none; stroke: rgb(255, 127, 14); stroke-opacity: 1; stroke-width: 2px; opacity: 1;"/><path class="js-line" d="M346.19,52.45L347.23,161.06L348.38,193.72L350.69,226.32L351.84,236.78L355.31,258.7L356.46,264.15L361.07,281.05L362.23,284.43L367.99,298.16L369.15,300.44L376.07,311.9L377.22,313.53L385.3,323.26L386.45,324.46L395.68,332.8L396.83,333.71L408.37,341.63L409.52,342.32L422.21,349L423.37,349.54L439.52,356.08L440.67,356.49L460.28,362.54L461.44,362.85L483.35,368.04L484.51,368.28L516.81,373.99L517.96,374.16L550.26,378.42L551.42,378.55L598.71,383.17L599.87,383.26L648.32,386.73L649.47,386.8L691,389.12" style="vector-effect: non-scaling-stroke; fill: none; stroke: rgb(255, 127, 14); stroke-opacity: 1; stroke-width: 2px; opacity: 1;"/></g><g class="points"/><g class="text"/></g><g class="trace scatter trace6fb290" style="stroke-miterlimit: 2; opacity: 1;"><g class="fills"/><g class="errorbars"/><g class="lines"><path class="js-line" d="M0,382.31L72.68,378.41L73.83,378.34L136.12,373.81L137.28,373.71L191.5,368.26L192.65,368.12L233.03,362.48L234.18,362.29L263.02,356.79L264.17,356.53L286.09,350.87L287.24,350.52L302.24,345.31L303.39,344.84L314.93,339.41L316.08,338.77L324.16,333.51L325.31,332.62L331.08,327.29L332.23,325.99L336.85,319.46L338,317.33L341.46,308.45L342.62,303.9L343.77,297.51L344.92,286.6L345.73,267.66L345.85,261.29L345.96,250.39" style="vector-effect: non-scaling-stroke; fill: none; stroke: rgb(44, 160, 44); stroke-opacity: 1; stroke-width: 2px; opacity: 1;"/><path class="js-line" d="M346.19,250.39L347.23,286.6L348.38,297.51L350.69,308.45L351.84,311.98L355.31,319.46L356.46,321.35L361.07,327.29L362.23,328.49L369.15,334.37L370.3,335.18L379.53,340.63L380.68,341.21L393.37,346.64L394.53,347.07L411.83,352.53L412.98,352.84L436.06,358.26L437.21,358.49L462.59,363.04L463.74,363.22L501.81,368.4L502.96,368.53L544.49,372.8L545.65,372.9L591.79,376.58L592.94,376.66L670.24,381.25L671.39,381.31L691,382.26" style="vector-effect: non-scaling-stroke; fill: none; stroke: rgb(44, 160, 44); stroke-opacity: 1; stroke-width: 2px; opacity: 1;"/></g><g class="points"/><g class="text"/></g><g class="trace scatter tracee83196" style="stroke-miterlimit: 2; opacity: 1;"><g class="fills"/><g class="errorbars"/><g class="lines"><path class="js-line" d="M0,399L116.51,395.25L117.67,395.2L183.42,391.61L184.57,391.53L238.79,386.65L239.95,386.51L266.48,382.77L267.63,382.58L289.55,378.06L290.7,377.77L305.7,373.21L306.85,372.78L317.24,368.21L318.39,367.59L326.47,362.34L327.62,361.41L333.39,355.62L334.54,354.14L338,348.58L339.16,346.17L341.46,339.82L342.62,335.3L343.77,328.93L344.92,318.04L345.73,299.11L345.85,292.73L345.96,281.84" style="vector-effect: non-scaling-stroke; fill: none; stroke: rgb(0, 0, 255); stroke-opacity: 1; stroke-width: 2px; opacity: 1;"/><path class="js-line" d="M346.19,281.84L347.23,318.04L348.38,328.93L350.69,339.82L351.84,343.32L355.31,350.67L356.46,352.5L361.07,358.21L362.23,359.36L369.15,364.83L370.3,365.57L379.53,370.43L380.68,370.93L393.37,375.51L394.53,375.86L410.68,379.93L411.83,380.17L434.9,384.23L436.06,384.39L464.9,387.92L466.05,388.04L515.65,392.07L516.81,392.14L566.41,394.84L567.57,394.89L658.7,398.13L659.85,398.16L691,398.97" style="vector-effect: non-scaling-stroke; fill: none; stroke: rgb(0, 0, 255); stroke-opacity: 1; stroke-width: 2px; opacity: 1;"/></g><g class="points"/><g class="text"/></g></g></g><g class="overplot"/><path class="xlines-above crisp" d="M79,520.5H771" style="fill: none; stroke-width: 1px; stroke: rgb(68, 68, 68); stroke-opacity: 1;"/><path class="ylines-above crisp" d="M79.5,100V520" style="fill: none; stroke-width: 1px; stroke: rgb(68, 68, 68); stroke-opacity: 1;"/><g class="overlines-above"/><g class="xaxislayer-above"><g class="xtick"><text text-anchor="middle" x="0" y="535.4" transform="translate(80,0)" style="font-family: 'Open Sans', verdana, arial, sans-serif; font-size: 12px; fill: rgb(68, 68, 68); fill-opacity: 1; white-space: pre;">−3</text></g><g class="xtick"><text text-anchor="middle" x="0" y="535.4" transform="translate(195.36,0)" style="font-family: 'Open Sans', verdana, arial, sans-serif; font-size: 12px; fill: rgb(68, 68, 68); fill-opacity: 1; white-space: pre;">−2</text></g><g class="xtick"><text text-anchor="middle" x="0" y="535.4" transform="translate(310.72,0)" style="font-family: 'Open Sans', verdana, arial, sans-serif; font-size: 12px; fill: rgb(68, 68, 68); fill-opacity: 1; white-space: pre;">−1</text></g><g class="xtick"><text text-anchor="middle" x="0" y="535.4" transform="translate(426.08,0)" style="font-family: 'Open Sans', verdana, arial, sans-serif; font-size: 12px; fill: rgb(68, 68, 68); fill-opacity: 1; white-space: pre;">0</text></g><g class="xtick"><text text-anchor="middle" x="0" y="535.4" transform="translate(541.44,0)" style="font-family: 'Open Sans', verdana, arial, sans-serif; font-size: 12px; fill: rgb(68, 68, 68); fill-opacity: 1; white-space: pre;">1</text></g><g class="xtick"><text text-anchor="middle" x="0" y="535.4" transform="translate(656.79,0)" style="font-family: 'Open Sans', verdana, arial, sans-serif; font-size: 12px; fill: rgb(68, 68, 68); fill-opacity: 1; white-space: pre;">2</text></g></g><g class="yaxislayer-above"><g class="ytick"><text text-anchor="end" x="76.6" y="4.199999999999999" transform="translate(0,512.25)" style="font-family: 'Open Sans', verdana, arial, sans-serif; font-size: 12px; fill: rgb(68, 68, 68); fill-opacity: 1; white-space: pre;">0</text></g><g class="ytick"><text text-anchor="end" x="76.6" y="4.199999999999999" transform="translate(0,433.63)" style="font-family: 'Open Sans', verdana, arial, sans-serif; font-size: 12px; fill: rgb(68, 68, 68); fill-opacity: 1; white-space: pre;">5</text></g><g class="ytick"><text text-anchor="end" x="76.6" y="4.199999999999999" transform="translate(0,355.01)" style="font-family: 'Open Sans', verdana, arial, sans-serif; font-size: 12px; fill: rgb(68, 68, 68); fill-opacity: 1; white-space: pre;">10</text></g><g class="ytick"><text text-anchor="end" x="76.6" y="4.199999999999999" transform="translate(0,276.39)" style="font-family: 'Open Sans', verdana, arial, sans-serif; font-size: 12px; fill: rgb(68, 68, 68); fill-opacity: 1; white-space: pre;">15</text></g><g class="ytick"><text text-anchor="end" x="76.6" y="4.199999999999999" transform="translate(0,197.76999999999998)" style="font-family: 'Open Sans', verdana, arial, sans-serif; font-size: 12px; fill: rgb(68, 68, 68); fill-opacity: 1; white-space: pre;">20</text></g><g class="ytick"><text text-anchor="end" x="76.6" y="4.199999999999999" transform="translate(0,119.15)" style="font-family: 'Open Sans', verdana, arial, sans-serif; font-size: 12px; fill: rgb(68, 68, 68); fill-opacity: 1; white-space: pre;">25</text></g></g><g class="overaxes-above"/></g></g><g class="polarlayer"/><g class="ternarylayer"/><g class="geolayer"/><g class="funnelarealayer"/><g class="pielayer"/><g class="treemaplayer"/><g class="sunburstlayer"/><g class="glimages"/><defs id="topdefs-74cc03"><g class="clips"/><clipPath id="legend74cc03"><rect width="103" height="86" x="0" y="0"/></clipPath></defs><g class="layer-above"><g class="imagelayer"/><g class="shapelayer"/></g><g class="infolayer"><g class="legend" pointer-events="all" transform="translate(784.82,100)"><rect class="bg" shape-rendering="crispEdges" style="stroke: rgb(68, 68, 68); stroke-opacity: 1; fill: rgb(255, 255, 255); fill-opacity: 1; stroke-width: 0px;" width="103" height="86" x="0" y="0"/><g class="scrollbox" transform="" clip-path="url('#legend74cc03')"><g class="groups"><g class="traces" transform="translate(0,14.5)" style="opacity: 1;"><text class="legendtext" text-anchor="start" x="40" y="4.680000000000001" style="font-family: 'Open Sans', verdana, arial, sans-serif; font-size: 12px; fill: rgb(68, 68, 68); fill-opacity: 1; white-space: pre;">a=3, b=3</text><g class="layers" style="opacity: 1;"><g class="legendfill"/><g class="legendlines"><path class="js-line" d="M5,0h30" style="fill: none; stroke: rgb(255, 0, 0); stroke-opacity: 1; stroke-width: 2px;"/></g><g class="legendsymbols"><g class="legendpoints"/></g></g><rect class="legendtoggle" x="0" y="-9.5" width="98" height="19" style="fill: rgb(0, 0, 0); fill-opacity: 0;"/></g><g class="traces" transform="translate(0,33.5)" style="opacity: 1;"><text class="legendtext" text-anchor="start" x="40" y="4.680000000000001" style="font-family: 'Open Sans', verdana, arial, sans-serif; font-size: 12px; fill: rgb(68, 68, 68); fill-opacity: 1; white-space: pre;">a=1, b=3</text><g class="layers" style="opacity: 1;"><g class="legendfill"/><g class="legendlines"><path class="js-line" d="M5,0h30" style="fill: none; stroke: rgb(255, 127, 14); stroke-opacity: 1; stroke-width: 2px;"/></g><g class="legendsymbols"><g class="legendpoints"/></g></g><rect class="legendtoggle" x="0" y="-9.5" width="98" height="19" style="fill: rgb(0, 0, 0); fill-opacity: 0;"/></g><g class="traces" transform="translate(0,52.5)" style="opacity: 1;"><text class="legendtext" text-anchor="start" x="40" y="4.680000000000001" style="font-family: 'Open Sans', verdana, arial, sans-serif; font-size: 12px; fill: rgb(68, 68, 68); fill-opacity: 1; white-space: pre;">a=3, b=1</text><g class="layers" style="opacity: 1;"><g class="legendfill"/><g class="legendlines"><path class="js-line" d="M5,0h30" style="fill: none; stroke: rgb(44, 160, 44); stroke-opacity: 1; stroke-width: 2px;"/></g><g class="legendsymbols"><g class="legendpoints"/></g></g><rect class="legendtoggle" x="0" y="-9.5" width="98" height="19" style="fill: rgb(0, 0, 0); fill-opacity: 0;"/></g><g class="traces" transform="translate(0,71.5)" style="opacity: 1;"><text class="legendtext" text-anchor="start" x="40" y="4.680000000000001" style="font-family: 'Open Sans', verdana, arial, sans-serif; font-size: 12px; fill: rgb(68, 68, 68); fill-opacity: 1; white-space: pre;">a=1, b=1</text><g class="layers" style="opacity: 1;"><g class="legendfill"/><g class="legendlines"><path class="js-line" d="M5,0h30" style="fill: none; stroke: rgb(0, 0, 255); stroke-opacity: 1; stroke-width: 2px;"/></g><g class="legendsymbols"><g class="legendpoints"/></g></g><rect class="legendtoggle" x="0" y="-9.5" width="98" height="19" style="fill: rgb(0, 0, 0); fill-opacity: 0;"/></g></g></g><rect class="scrollbar" rx="20" ry="3" width="0" height="0" style="fill: rgb(128, 139, 164); fill-opacity: 1;" x="0" y="0"/></g><g class="g-gtitle"><text class="gtitle" x="450" y="50" text-anchor="middle" dy="0em" style="font-family: 'Open Sans', verdana, arial, sans-serif; font-size: 17px; fill: rgb(68, 68, 68); opacity: 1; font-weight: normal; white-space: pre;">Bulirsch's Complete Elliptic Integral of the Second Kind (cel2)</text></g><g class="g-xtitle"><text class="xtitle" x="425.5" y="572" text-anchor="middle" style="font-family: 'Open Sans', verdana, arial, sans-serif; font-size: 14px; fill: rgb(68, 68, 68); opacity: 1; font-weight: normal; white-space: pre;">kc</text></g><g class="g-ytitle"><text class="ytitle" transform="rotate(-90,42,310)" x="42" y="310" text-anchor="middle" style="font-family: 'Open Sans', verdana, arial, sans-serif; font-size: 14px; fill: rgb(68, 68, 68); opacity: 1; font-weight: normal; white-space: pre;">cel2(kc,a,b)</text></g><g class="annotation" data-index="0" style="opacity: 1;"><g class="annotation-text-g" transform="rotate(0,671.7800000000001,574)"><g class="cursor-pointer" transform="translate(517,565)"><rect class="bg" x="0.5" y="0.5" width="308" height="17" style="stroke-width: 1px; stroke: rgb(0, 0, 0); stroke-opacity: 0; fill: rgb(0, 0, 0); fill-opacity: 0;"/><text class="annotation-text" text-anchor="middle" x="154.5" y="14" style="font-family: 'Open Sans', verdana, arial, sans-serif; font-size: 12px; fill: rgb(68, 68, 68); fill-opacity: 1; white-space: pre; pointer-events: all;">Generated using the function <a xlink:show="new" target="_blank" xlink:href="https://docs.rs/ellip/latest/ellip/bulirsch/fn.cel2.html" style="cursor:pointer">cel2</a> from <a xlink:show="new" target="_blank" xlink:href="https://crates.io/crates/ellip" style="cursor:pointer">ellip</a> v0.3.0</text></g></g></g></g></svg>