<svg class="main-svg" xmlns="http://www.w3.org/2000/svg" xmlns:xlink="http://www.w3.org/1999/xlink" width="1000" height="600" style="" viewBox="0 0 1000 600"><rect x="0" y="0" width="1000" height="600" style="fill: rgb(255, 255, 255); fill-opacity: 1;"/><defs id="defs-e8130f"><g class="clips"><clipPath id="clipe8130fxyplot" class="plotclip"><rect width="805" height="420"/></clipPath><clipPath class="axesclip" id="clipe8130fx"><rect x="80" y="0" width="805" height="600"/></clipPath><clipPath class="axesclip" id="clipe8130fy"><rect x="0" y="100" width="1000" height="420"/></clipPath><clipPath class="axesclip" id="clipe8130fxy"><rect x="80" y="100" width="805" height="420"/></clipPath></g><g class="gradients"/></defs><g class="bglayer"/><g class="layer-below"><g class="imagelayer"/><g class="shapelayer"/></g><g class="cartesianlayer"><g class="subplot xy"><g class="layer-subplot"><g class="shapelayer"/><g class="imagelayer"/></g><g class="gridlayer"><g class="x"><path class="xgrid crisp" transform="translate(214.17,0)" d="M0,100v420" style="stroke: rgb(238, 238, 238); stroke-opacity: 1; stroke-width: 1px;"/><path class="xgrid crisp" transform="translate(348.33,0)" d="M0,100v420" style="stroke: rgb(238, 238, 238); stroke-opacity: 1; stroke-width: 1px;"/><path class="xgrid crisp" transform="translate(616.67,0)" d="M0,100v420" style="stroke: rgb(238, 238, 238); stroke-opacity: 1; stroke-width: 1px;"/><path class="xgrid crisp" transform="translate(750.83,0)" d="M0,100v420" style="stroke: rgb(238, 238, 238); stroke-opacity: 1; stroke-width: 1px;"/></g><g class="y"><path class="ygrid crisp" transform="translate(0,453.09)" d="M80,0h805" style="stroke: rgb(238, 238, 238); stroke-opacity: 1; stroke-width: 1px;"/><path class="ygrid crisp" transform="translate(0,384.78)" d="M80,0h805" style="stroke: rgb(238, 238, 238); stroke-opacity: 1; stroke-width: 1px;"/><path class="ygrid crisp" transform="translate(0,248.16)" d="M80,0h805" style="stroke: rgb(238, 238, 238); stroke-opacity: 1; stroke-width: 1px;"/><path class="ygrid crisp" transform="translate(0,179.85)" d="M80,0h805" style="stroke: rgb(238, 238, 238); stroke-opacity: 1; stroke-width: 1px;"/><path class="ygrid crisp" transform="translate(0,111.53)" d="M80,0h805" style="stroke: rgb(238, 238, 238); stroke-opacity: 1; stroke-width: 1px;"/></g></g><g class="zerolinelayer"><path class="xzl zl crisp" transform="translate(482.5,0)" d="M0,100v420" style="stroke: rgb(68, 68, 68); stroke-opacity: 1; stroke-width: 1px;"/><path class="yzl zl crisp" transform="translate(0,316.47)" d="M80,0h805" style="stroke: rgb(68, 68, 68); stroke-opacity: 1; stroke-width: 1px;"/></g><path class="xlines-below"/><path class="ylines-below"/><g class="overlines-below"/><g class="xaxislayer-below"/><g class="yaxislayer-below"/><g class="overaxes-below"/><g class="plot" transform="translate(80,100)" clip-path="url('#clipe8130fxyplot')"><g class="scatterlayer mlayer"><g class="trace scatter trace06ce0d" style="stroke-miterlimit: 2; opacity: 1;"><g class="fills"/><g class="errorbars"/><g class="lines"><path class="js-line" d="M0,210.71L148.93,208.86L150.27,208.83L240.16,206.74L241.5,206.69L301.88,204.14L303.22,204.07L343.47,200.95L344.81,200.81L367.62,197.59L368.96,197.33L381.03,194.38L382.38,193.95L390.43,190.51L391.77,189.71L395.79,186.52L397.13,185L399.82,180.27L401.16,175.54L402.1,167.32L402.23,164.55L402.37,159.81" style="vector-effect: non-scaling-stroke; fill: none; stroke: rgb(255, 0, 0); stroke-opacity: 1; stroke-width: 2px; opacity: 1;"/><path class="js-line" d="M402.63,159.81L403.84,175.54L405.18,180.27L407.87,185L409.21,186.52L414.58,190.51L415.92,191.22L423.97,194.38L425.31,194.79L438.73,197.84L440.07,198.07L460.19,200.81L461.53,200.95L493.73,203.58L495.08,203.66L536.67,205.74L538.01,205.79L594.36,207.57L595.7,207.6L733.89,209.98L735.23,209.99L805,210.71" style="vector-effect: non-scaling-stroke; fill: none; stroke: rgb(255, 0, 0); stroke-opacity: 1; stroke-width: 2px; opacity: 1;"/></g><g class="points"/><g class="text"/></g><g class="trace scatter tracee2c3c5" style="stroke-miterlimit: 2; opacity: 1;"><g class="fills"/><g class="errorbars"/><g class="lines"><path class="js-line" d="M0,209.01L163.68,205.85L165.03,205.81L244.18,202.72L245.53,202.65L292.48,199.47L293.83,199.35L327.37,195.6L328.71,195.41L351.52,191.26L352.86,190.95L367.62,186.7L368.96,186.21L378.35,182.06L379.69,181.32L386.4,176.77L387.74,175.62L393.11,169.58L394.45,167.51L397.13,162.02L398.48,158.1L399.82,152.58L401.16,143.12L402.1,126.68L402.23,121.14L402.37,111.67" style="vector-effect: non-scaling-stroke; fill: none; stroke: rgb(255, 127, 14); stroke-opacity: 1; stroke-width: 2px; opacity: 1;"/><path class="js-line" d="M402.63,111.67L403.84,143.12L405.18,152.58L407.87,162.02L409.21,165.04L413.23,171.38L414.58,172.95L419.94,177.83L421.28,178.8L429.33,183.41L430.68,184.03L442.75,188.45L444.09,188.85L460.19,192.69L461.53,192.95L485.68,196.67L487.03,196.84L520.57,200.13L521.91,200.24L572.89,203.32L574.23,203.39L654.73,206.22L656.08,206.26L805,209.01" style="vector-effect: non-scaling-stroke; fill: none; stroke: rgb(255, 127, 14); stroke-opacity: 1; stroke-width: 2px; opacity: 1;"/></g><g class="points"/><g class="text"/></g><g class="trace scatter trace915ea2" style="stroke-miterlimit: 2; opacity: 1;"><g class="fills"/><g class="errorbars"/><g class="lines"><path class="js-line" d="M0,206.72L92.57,204.6L93.92,204.56L155.63,202.44L156.98,202.39L229.43,198.42L230.77,198.32L266.99,195.15L268.33,195.01L301.88,190.6L303.22,190.38L327.37,185.51L328.71,185.18L346.15,179.93L347.49,179.44L359.57,174.19L360.91,173.49L370.3,167.68L371.64,166.69L378.35,160.81L379.69,159.41L385.06,152.69L386.4,150.65L390.43,143.2L391.77,140.1L395.79,127.59L397.13,121.59L399.82,102.79L401.16,83.9L402.1,51.02L402.23,39.94L402.37,21" style="vector-effect: non-scaling-stroke; fill: none; stroke: rgb(44, 160, 44); stroke-opacity: 1; stroke-width: 2px; opacity: 1;"/><path class="js-line" d="M402.63,21L403.84,83.9L405.18,102.79L407.87,121.59L409.21,127.59L413.23,140.1L414.58,143.2L419.94,152.69L421.28,154.56L427.99,162.12L429.33,163.36L437.38,169.53L438.73,170.4L449.46,176.13L450.8,176.73L464.22,181.75L465.56,182.18L483,186.76L484.34,187.06L507.15,191.23L508.49,191.44L539.35,195.29L540.69,195.43L587.65,199.25L588.99,199.34L660.1,202.87L661.44,202.92L755.36,205.7L756.7,205.73L805,206.72" style="vector-effect: non-scaling-stroke; fill: none; stroke: rgb(44, 160, 44); stroke-opacity: 1; stroke-width: 2px; opacity: 1;"/></g><g class="points"/><g class="text"/></g><g class="trace scatter tracea8d7b6" style="stroke-miterlimit: 2; opacity: 1;"><g class="fills"/><g class="errorbars"/><g class="lines"><path class="js-line" d="M0,213.88L190.52,214.62L191.86,214.64L269.68,216.52L271.02,216.58L317.98,219.42L319.32,219.54L350.18,223.03L351.52,223.22L371.64,227.02L372.98,227.35L383.72,230.64L385.06,231.17L391.77,234.59L393.11,235.52L397.13,239.39L398.48,241.36L399.82,244.14L401.16,248.88L402.1,257.11L402.23,259.88L402.37,264.61" style="vector-effect: non-scaling-stroke; fill: none; stroke: rgb(128, 0, 128); stroke-opacity: 1; stroke-width: 2px; opacity: 1;"/><path class="js-line" d="M402.63,264.61L403.84,248.88L405.18,244.14L407.87,239.39L409.21,237.85L414.58,233.77L415.92,233.03L423.97,229.68L425.31,229.24L437.38,226.11L438.73,225.82L458.85,222.46L460.19,222.28L487.03,219.42L488.37,219.31L525.93,216.94L527.28,216.87L582.28,215.14L583.63,215.12L656.08,214.23L657.42,214.22L802.32,213.88L803.66,213.88L805,213.88" style="vector-effect: non-scaling-stroke; fill: none; stroke: rgb(128, 0, 128); stroke-opacity: 1; stroke-width: 2px; opacity: 1;"/></g><g class="points"/><g class="text"/></g><g class="trace scatter tracee13b24" style="stroke-miterlimit: 2; opacity: 1;"><g class="fills"/><g class="errorbars"/><g class="lines"><path class="js-line" d="M0,213.61L197.23,214.34L198.57,214.36L258.94,216.01L260.28,216.07L295.17,218.33L296.51,218.45L324.68,221.9L326.02,222.12L346.15,226.26L347.49,226.61L362.25,231.21L363.59,231.72L374.33,236.54L375.67,237.26L383.72,242.5L385.06,243.57L390.43,248.82L391.77,250.48L395.79,257.04L397.13,260.12L399.82,269.65L401.16,279.14L402.1,295.6L402.23,301.14L402.37,310.61" style="vector-effect: non-scaling-stroke; fill: none; stroke: rgb(148, 0, 211); stroke-opacity: 1; stroke-width: 2px; opacity: 1;"/><path class="js-line" d="M402.63,310.61L403.84,279.14L405.18,269.65L407.87,260.12L409.21,257.04L413.23,250.48L414.58,248.82L419.94,243.57L421.28,242.5L429.33,237.26L430.68,236.54L441.41,231.72L442.75,231.21L457.51,226.61L458.85,226.26L477.63,222.35L478.98,222.12L501.78,219.11L503.13,218.97L535.33,216.54L536.67,216.47L582.28,214.82L583.63,214.79L658.76,213.83L660.1,213.83L790.24,213.6L791.58,213.6L805,213.61" style="vector-effect: non-scaling-stroke; fill: none; stroke: rgb(148, 0, 211); stroke-opacity: 1; stroke-width: 2px; opacity: 1;"/></g><g class="points"/><g class="text"/></g><g class="trace scatter trace9dd587" style="stroke-miterlimit: 2; opacity: 1;"><g class="fills"/><g class="errorbars"/><g class="lines"><path class="js-line" d="M0,213.45L100.63,213.44L101.97,213.44L203.93,214.19L205.28,214.22L253.58,215.66L254.92,215.72L289.8,218.23L291.14,218.37L312.61,221.36L313.95,221.6L330.05,225.29L331.39,225.67L344.81,230.39L346.15,230.96L356.88,236.46L358.23,237.27L367.62,244.03L368.96,245.17L377.01,253.26L378.35,254.87L385.06,264.46L386.4,266.8L391.77,278.48L393.11,282.27L395.79,291.72L397.13,297.94L399.82,317.06L401.16,336.06L402.1,368.98L402.23,380.06L402.37,399" style="vector-effect: non-scaling-stroke; fill: none; stroke: rgb(0, 0, 255); stroke-opacity: 1; stroke-width: 2px; opacity: 1;"/><path class="js-line" d="M402.63,399L403.84,336.06L405.18,317.06L407.87,297.94L409.21,291.72L413.23,278.48L414.58,275.11L419.94,264.46L421.28,262.29L427.99,253.26L429.33,251.74L437.38,244.03L438.73,242.94L448.12,236.46L449.46,235.67L460.19,230.39L461.53,229.83L474.95,225.29L476.29,224.92L492.39,221.36L493.73,221.12L513.86,218.37L515.2,218.23L542.03,216.15L543.38,216.07L588.99,214.43L590.33,214.4L660.1,213.58L661.44,213.58L782.19,213.42L783.53,213.42L805,213.45" style="vector-effect: non-scaling-stroke; fill: none; stroke: rgb(0, 0, 255); stroke-opacity: 1; stroke-width: 2px; opacity: 1;"/></g><g class="points"/><g class="text"/></g></g></g><g class="overplot"/><path class="xlines-above crisp" d="M79,520.5H885" style="fill: none; stroke-width: 1px; stroke: rgb(68, 68, 68); stroke-opacity: 1;"/><path class="ylines-above crisp" d="M79.5,100V520" style="fill: none; stroke-width: 1px; stroke: rgb(68, 68, 68); stroke-opacity: 1;"/><g class="overlines-above"/><g class="xaxislayer-above"><g class="xtick"><text text-anchor="middle" x="0" y="535.4" transform="translate(80,0)" style="font-family: 'Open Sans', verdana, arial, sans-serif; font-size: 12px; fill: rgb(68, 68, 68); fill-opacity: 1; white-space: pre;">−3</text></g><g class="xtick"><text text-anchor="middle" x="0" y="535.4" transform="translate(214.17,0)" style="font-family: 'Open Sans', verdana, arial, sans-serif; font-size: 12px; fill: rgb(68, 68, 68); fill-opacity: 1; white-space: pre;">−2</text></g><g class="xtick"><text text-anchor="middle" x="0" y="535.4" transform="translate(348.33,0)" style="font-family: 'Open Sans', verdana, arial, sans-serif; font-size: 12px; fill: rgb(68, 68, 68); fill-opacity: 1; white-space: pre;">−1</text></g><g class="xtick"><text text-anchor="middle" x="0" y="535.4" transform="translate(482.5,0)" style="font-family: 'Open Sans', verdana, arial, sans-serif; font-size: 12px; fill: rgb(68, 68, 68); fill-opacity: 1; white-space: pre;">0</text></g><g class="xtick"><text text-anchor="middle" x="0" y="535.4" transform="translate(616.67,0)" style="font-family: 'Open Sans', verdana, arial, sans-serif; font-size: 12px; fill: rgb(68, 68, 68); fill-opacity: 1; white-space: pre;">1</text></g><g class="xtick"><text text-anchor="middle" x="0" y="535.4" transform="translate(750.83,0)" style="font-family: 'Open Sans', verdana, arial, sans-serif; font-size: 12px; fill: rgb(68, 68, 68); fill-opacity: 1; white-space: pre;">2</text></g><g class="xtick"><text text-anchor="middle" x="0" y="535.4" transform="translate(885,0)" style="font-family: 'Open Sans', verdana, arial, sans-serif; font-size: 12px; fill: rgb(68, 68, 68); fill-opacity: 1; white-space: pre;">3</text></g></g><g class="yaxislayer-above"><g class="ytick"><text text-anchor="end" x="76.6" y="4.199999999999999" transform="translate(0,453.09)" style="font-family: 'Open Sans', verdana, arial, sans-serif; font-size: 12px; fill: rgb(68, 68, 68); fill-opacity: 1; white-space: pre;">−20</text></g><g class="ytick"><text text-anchor="end" x="76.6" y="4.199999999999999" transform="translate(0,384.78)" style="font-family: 'Open Sans', verdana, arial, sans-serif; font-size: 12px; fill: rgb(68, 68, 68); fill-opacity: 1; white-space: pre;">−10</text></g><g class="ytick"><text text-anchor="end" x="76.6" y="4.199999999999999" transform="translate(0,316.47)" style="font-family: 'Open Sans', verdana, arial, sans-serif; font-size: 12px; fill: rgb(68, 68, 68); fill-opacity: 1; white-space: pre;">0</text></g><g class="ytick"><text text-anchor="end" x="76.6" y="4.199999999999999" transform="translate(0,248.16)" style="font-family: 'Open Sans', verdana, arial, sans-serif; font-size: 12px; fill: rgb(68, 68, 68); fill-opacity: 1; white-space: pre;">10</text></g><g class="ytick"><text text-anchor="end" x="76.6" y="4.199999999999999" transform="translate(0,179.85)" style="font-family: 'Open Sans', verdana, arial, sans-serif; font-size: 12px; fill: rgb(68, 68, 68); fill-opacity: 1; white-space: pre;">20</text></g><g class="ytick"><text text-anchor="end" x="76.6" y="4.199999999999999" transform="translate(0,111.53)" style="font-family: 'Open Sans', verdana, arial, sans-serif; font-size: 12px; fill: rgb(68, 68, 68); fill-opacity: 1; white-space: pre;">30</text></g></g><g class="overaxes-above"/></g></g><g class="polarlayer"/><g class="ternarylayer"/><g class="geolayer"/><g class="funnelarealayer"/><g class="pielayer"/><g class="treemaplayer"/><g class="sunburstlayer"/><g class="glimages"/><defs id="topdefs-e8130f"><g class="clips"/><clipPath id="legende8130f"><rect width="87" height="124" x="0" y="0"/></clipPath></defs><g class="layer-above"><g class="imagelayer"/><g class="shapelayer"/></g><g class="infolayer"><g class="legend" pointer-events="all" transform="translate(901.1,100)"><rect class="bg" shape-rendering="crispEdges" style="stroke: rgb(68, 68, 68); stroke-opacity: 1; fill: rgb(255, 255, 255); fill-opacity: 1; stroke-width: 0px;" width="87" height="124" x="0" y="0"/><g class="scrollbox" transform="" clip-path="url('#legende8130f')"><g class="groups"><g class="traces" transform="translate(0,14.5)" style="opacity: 1;"><text class="legendtext" text-anchor="start" x="40" y="4.680000000000001" style="font-family: 'Open Sans', verdana, arial, sans-serif; font-size: 12px; fill: rgb(68, 68, 68); fill-opacity: 1; white-space: pre;">p=1</text><g class="layers" style="opacity: 1;"><g class="legendfill"/><g class="legendlines"><path class="js-line" d="M5,0h30" style="fill: none; stroke: rgb(255, 0, 0); stroke-opacity: 1; stroke-width: 2px;"/></g><g class="legendsymbols"><g class="legendpoints"/></g></g><rect class="legendtoggle" x="0" y="-9.5" width="82" height="19" style="fill: rgb(0, 0, 0); fill-opacity: 0;"/></g><g class="traces" transform="translate(0,33.5)" style="opacity: 1;"><text class="legendtext" text-anchor="start" x="40" y="4.680000000000001" style="font-family: 'Open Sans', verdana, arial, sans-serif; font-size: 12px; fill: rgb(68, 68, 68); fill-opacity: 1; white-space: pre;">p=0.5</text><g class="layers" style="opacity: 1;"><g class="legendfill"/><g class="legendlines"><path class="js-line" d="M5,0h30" style="fill: none; stroke: rgb(255, 127, 14); stroke-opacity: 1; stroke-width: 2px;"/></g><g class="legendsymbols"><g class="legendpoints"/></g></g><rect class="legendtoggle" x="0" y="-9.5" width="82" height="19" style="fill: rgb(0, 0, 0); fill-opacity: 0;"/></g><g class="traces" transform="translate(0,52.5)" style="opacity: 1;"><text class="legendtext" text-anchor="start" x="40" y="4.680000000000001" style="font-family: 'Open Sans', verdana, arial, sans-serif; font-size: 12px; fill: rgb(68, 68, 68); fill-opacity: 1; white-space: pre;">p=0.25</text><g class="layers" style="opacity: 1;"><g class="legendfill"/><g class="legendlines"><path class="js-line" d="M5,0h30" style="fill: none; stroke: rgb(44, 160, 44); stroke-opacity: 1; stroke-width: 2px;"/></g><g class="legendsymbols"><g class="legendpoints"/></g></g><rect class="legendtoggle" x="0" y="-9.5" width="82" height="19" style="fill: rgb(0, 0, 0); fill-opacity: 0;"/></g><g class="traces" transform="translate(0,71.5)" style="opacity: 1;"><text class="legendtext" text-anchor="start" x="40" y="4.680000000000001" style="font-family: 'Open Sans', verdana, arial, sans-serif; font-size: 12px; fill: rgb(68, 68, 68); fill-opacity: 1; white-space: pre;">p=-1</text><g class="layers" style="opacity: 1;"><g class="legendfill"/><g class="legendlines"><path class="js-line" d="M5,0h30" style="fill: none; stroke: rgb(128, 0, 128); stroke-opacity: 1; stroke-width: 2px;"/></g><g class="legendsymbols"><g class="legendpoints"/></g></g><rect class="legendtoggle" x="0" y="-9.5" width="82" height="19" style="fill: rgb(0, 0, 0); fill-opacity: 0;"/></g><g class="traces" transform="translate(0,90.5)" style="opacity: 1;"><text class="legendtext" text-anchor="start" x="40" y="4.680000000000001" style="font-family: 'Open Sans', verdana, arial, sans-serif; font-size: 12px; fill: rgb(68, 68, 68); fill-opacity: 1; white-space: pre;">p=-0.5</text><g class="layers" style="opacity: 1;"><g class="legendfill"/><g class="legendlines"><path class="js-line" d="M5,0h30" style="fill: none; stroke: rgb(148, 0, 211); stroke-opacity: 1; stroke-width: 2px;"/></g><g class="legendsymbols"><g class="legendpoints"/></g></g><rect class="legendtoggle" x="0" y="-9.5" width="82" height="19" style="fill: rgb(0, 0, 0); fill-opacity: 0;"/></g><g class="traces" transform="translate(0,109.5)" style="opacity: 1;"><text class="legendtext" text-anchor="start" x="40" y="4.680000000000001" style="font-family: 'Open Sans', verdana, arial, sans-serif; font-size: 12px; fill: rgb(68, 68, 68); fill-opacity: 1; white-space: pre;">p=-0.25</text><g class="layers" style="opacity: 1;"><g class="legendfill"/><g class="legendlines"><path class="js-line" d="M5,0h30" style="fill: none; stroke: rgb(0, 0, 255); stroke-opacity: 1; stroke-width: 2px;"/></g><g class="legendsymbols"><g class="legendpoints"/></g></g><rect class="legendtoggle" x="0" y="-9.5" width="82" height="19" style="fill: rgb(0, 0, 0); fill-opacity: 0;"/></g></g></g><rect class="scrollbar" rx="20" ry="3" width="0" height="0" style="fill: rgb(128, 139, 164); fill-opacity: 1;" x="0" y="0"/></g><g class="g-gtitle"><text class="gtitle" x="500" y="50" text-anchor="middle" dy="0em" style="font-family: 'Open Sans', verdana, arial, sans-serif; font-size: 17px; fill: rgb(68, 68, 68); opacity: 1; font-weight: normal; white-space: pre;">General Complete Elliptic Integral (cel)</text></g><g class="g-xtitle"><text class="xtitle" x="482.5" y="572" text-anchor="middle" style="font-family: 'Open Sans', verdana, arial, sans-serif; font-size: 14px; fill: rgb(68, 68, 68); opacity: 1; font-weight: normal; white-space: pre;">kc</text></g><g class="g-ytitle"><text class="ytitle" transform="rotate(-90,42,310)" x="42" y="310" text-anchor="middle" style="font-family: 'Open Sans', verdana, arial, sans-serif; font-size: 14px; fill: rgb(68, 68, 68); opacity: 1; font-weight: normal; white-space: pre;">cel(kc,p,1,1)</text></g><g class="annotation" data-index="0" style="opacity: 1;"><g class="annotation-text-g" transform="rotate(0,847.9000000000001,574)"><g class="cursor-pointer" transform="translate(746,565)"><rect class="bg" x="0.5" y="0.5" width="202" height="17" style="stroke-width: 1px; stroke: rgb(0, 0, 0); stroke-opacity: 0; fill: rgb(0, 0, 0); fill-opacity: 0;"/><text class="annotation-text" text-anchor="middle" x="101.5" y="13" style="font-family: 'Open Sans', verdana, arial, sans-serif; font-size: 12px; fill: rgb(68, 68, 68); fill-opacity: 1; white-space: pre; pointer-events: all;">Generated using <a xlink:show="new" target="_blank" xlink:href="https://docs.rs/ellip/latest/ellip/bulirsch/fn.cel.html" style="cursor:pointer">cel</a> from <a xlink:show="new" target="_blank" xlink:href="https://crates.io/crates/ellip" style="cursor:pointer">ellip</a> v0.5.0</text></g></g></g></g></svg>