<svg class="main-svg" xmlns="http://www.w3.org/2000/svg" xmlns:xlink="http://www.w3.org/1999/xlink" width="900" height="600" style="" viewBox="0 0 900 600"><rect x="0" y="0" width="900" height="600" style="fill: rgb(255, 255, 255); fill-opacity: 1;"/><defs id="defs-984cdf"><g class="clips"><clipPath id="clip984cdfxyplot" class="plotclip"><rect width="707" height="420"/></clipPath><clipPath class="axesclip" id="clip984cdfx"><rect x="80" y="0" width="707" height="600"/></clipPath><clipPath class="axesclip" id="clip984cdfy"><rect x="0" y="100" width="900" height="420"/></clipPath><clipPath class="axesclip" id="clip984cdfxy"><rect x="80" y="100" width="707" height="420"/></clipPath></g><g class="gradients"/></defs><g class="bglayer"/><g class="layer-below"><g class="imagelayer"/><g class="shapelayer"/></g><g class="cartesianlayer"><g class="subplot xy"><g class="layer-subplot"><g class="shapelayer"/><g class="imagelayer"/></g><g class="gridlayer"><g class="x"><path class="xgrid crisp" transform="translate(197.82999999999998,0)" d="M0,100v420" style="stroke: rgb(238, 238, 238); stroke-opacity: 1; stroke-width: 1px;"/><path class="xgrid crisp" transform="translate(315.66999999999996,0)" d="M0,100v420" style="stroke: rgb(238, 238, 238); stroke-opacity: 1; stroke-width: 1px;"/><path class="xgrid crisp" transform="translate(551.3299999999999,0)" d="M0,100v420" style="stroke: rgb(238, 238, 238); stroke-opacity: 1; stroke-width: 1px;"/><path class="xgrid crisp" transform="translate(669.17,0)" d="M0,100v420" style="stroke: rgb(238, 238, 238); stroke-opacity: 1; stroke-width: 1px;"/></g><g class="y"><path class="ygrid crisp" transform="translate(0,453.09)" d="M80,0h707" style="stroke: rgb(238, 238, 238); stroke-opacity: 1; stroke-width: 1px;"/><path class="ygrid crisp" transform="translate(0,384.78)" d="M80,0h707" style="stroke: rgb(238, 238, 238); stroke-opacity: 1; stroke-width: 1px;"/><path class="ygrid crisp" transform="translate(0,248.16)" d="M80,0h707" style="stroke: rgb(238, 238, 238); stroke-opacity: 1; stroke-width: 1px;"/><path class="ygrid crisp" transform="translate(0,179.85)" d="M80,0h707" style="stroke: rgb(238, 238, 238); stroke-opacity: 1; stroke-width: 1px;"/><path class="ygrid crisp" transform="translate(0,111.53)" d="M80,0h707" style="stroke: rgb(238, 238, 238); stroke-opacity: 1; stroke-width: 1px;"/></g></g><g class="zerolinelayer"><path class="xzl zl crisp" transform="translate(433.5,0)" d="M0,100v420" style="stroke: rgb(68, 68, 68); stroke-opacity: 1; stroke-width: 1px;"/><path class="yzl zl crisp" transform="translate(0,316.47)" d="M80,0h707" style="stroke: rgb(68, 68, 68); stroke-opacity: 1; stroke-width: 1px;"/></g><path class="xlines-below"/><path class="ylines-below"/><g class="overlines-below"/><g class="xaxislayer-below"/><g class="yaxislayer-below"/><g class="overaxes-below"/><g class="plot" transform="translate(80,100)" clip-path="url('#clip984cdfxyplot')"><g class="scatterlayer mlayer"><g class="trace scatter trace152172" style="stroke-miterlimit: 2; opacity: 1;"><g class="fills"/><g class="errorbars"/><g class="lines"><path class="js-line" d="M0,210.71L130.8,208.86L131.97,208.83L209.74,206.78L210.92,206.74L278.09,203.22L279.27,203.13L311.08,199.69L312.26,199.51L328.76,196.19L329.93,195.87L339.36,192.45L340.54,191.87L345.25,188.81L346.43,187.76L349.97,183.04L351.14,180.27L352.91,170.81L353.03,169.28L353.38,159.81" style="vector-effect: non-scaling-stroke; fill: none; stroke: rgb(255, 0, 0); stroke-opacity: 1; stroke-width: 2px; opacity: 1;"/><path class="js-line" d="M353.62,159.81L354.68,175.54L355.86,180.27L358.21,185L359.39,186.52L364.11,190.51L365.28,191.22L372.35,194.38L373.53,194.79L385.32,197.84L386.49,198.07L404.17,200.81L405.35,200.95L433.63,203.58L434.81,203.66L471.33,205.74L472.51,205.79L522,207.57L523.18,207.6L645.73,209.99L646.91,210.01L707,210.71" style="vector-effect: non-scaling-stroke; fill: none; stroke: rgb(255, 0, 0); stroke-opacity: 1; stroke-width: 2px; opacity: 1;"/></g><g class="points"/><g class="text"/></g><g class="trace scatter tracec8a049" style="stroke-miterlimit: 2; opacity: 1;"><g class="fills"/><g class="errorbars"/><g class="lines"><path class="js-line" d="M0,209.01L142.58,205.89L143.76,205.85L214.46,202.72L215.64,202.65L256.88,199.47L258.06,199.35L287.51,195.6L288.69,195.41L308.72,191.26L309.9,190.95L322.86,186.7L324.04,186.21L332.29,182.06L333.47,181.32L339.36,176.77L340.54,175.62L345.25,169.58L346.43,167.51L348.79,162.02L349.97,158.1L351.14,152.58L352.32,143.12L353.15,126.68L353.26,121.14L353.38,111.67" style="vector-effect: non-scaling-stroke; fill: none; stroke: rgb(255, 127, 14); stroke-opacity: 1; stroke-width: 2px; opacity: 1;"/><path class="js-line" d="M353.62,111.67L354.68,143.12L355.86,152.58L358.21,162.02L359.39,165.04L362.93,171.38L364.11,172.95L368.82,177.83L370,178.8L377.07,183.41L378.25,184.03L388.85,188.45L390.03,188.85L404.17,192.69L405.35,192.95L425.38,196.51L426.56,196.67L452.48,199.69L453.66,199.81L492.54,202.72L493.72,202.79L550.28,205.4L551.46,205.45L649.26,208.03L650.44,208.05L707,209.01" style="vector-effect: non-scaling-stroke; fill: none; stroke: rgb(255, 127, 14); stroke-opacity: 1; stroke-width: 2px; opacity: 1;"/></g><g class="points"/><g class="text"/></g><g class="trace scatter trace5d847c" style="stroke-miterlimit: 2; opacity: 1;"><g class="fills"/><g class="errorbars"/><g class="lines"><path class="js-line" d="M0,206.72L81.31,204.6L82.48,204.56L136.69,202.44L137.87,202.39L201.5,198.42L202.67,198.32L234.49,195.15L235.67,195.01L266.3,190.38L267.48,190.15L287.51,185.51L288.69,185.18L304.01,179.93L305.19,179.44L315.79,174.19L316.97,173.49L325.22,167.68L326.4,166.69L333.47,159.41L334.65,157.91L339.36,150.65L340.54,148.41L344.07,140.1L345.25,136.57L348.79,121.59L349.97,113.81L351.14,102.79L352.32,83.9L353.15,51.02L353.26,39.94L353.38,21" style="vector-effect: non-scaling-stroke; fill: none; stroke: rgb(44, 160, 44); stroke-opacity: 1; stroke-width: 2px; opacity: 1;"/><path class="js-line" d="M353.62,21L354.68,83.9L355.86,102.79L358.21,121.59L359.39,127.59L362.93,140.1L364.11,143.2L368.82,152.69L370,154.56L375.89,162.12L377.07,163.36L384.14,169.53L385.32,170.4L394.74,176.13L395.92,176.73L407.7,181.75L408.88,182.18L424.2,186.76L425.38,187.06L445.41,191.23L446.59,191.44L473.69,195.29L474.87,195.43L516.11,199.25L517.29,199.34L579.74,202.87L580.92,202.92L664.58,205.73L665.76,205.76L707,206.72" style="vector-effect: non-scaling-stroke; fill: none; stroke: rgb(44, 160, 44); stroke-opacity: 1; stroke-width: 2px; opacity: 1;"/></g><g class="points"/><g class="text"/></g><g class="trace scatter trace104060" style="stroke-miterlimit: 2; opacity: 1;"><g class="fills"/><g class="errorbars"/><g class="lines"><path class="js-line" d="M0,213.88L167.32,214.62L168.5,214.64L236.85,216.52L238.02,216.58L278.09,219.31L279.27,219.42L307.55,223.03L308.72,223.22L326.4,227.02L327.58,227.35L338.18,231.17L339.36,231.74L345.25,235.52L346.43,236.59L349.97,241.36L351.14,244.14L352.91,253.62L353.03,255.14L353.38,264.61" style="vector-effect: non-scaling-stroke; fill: none; stroke: rgb(128, 0, 128); stroke-opacity: 1; stroke-width: 2px; opacity: 1;"/><path class="js-line" d="M353.62,264.61L354.68,248.88L355.86,244.14L358.21,239.39L359.39,237.85L364.11,233.77L365.28,233.03L372.35,229.68L373.53,229.24L385.32,225.82L386.49,225.55L402.99,222.46L404.17,222.28L427.74,219.42L428.91,219.31L463.09,216.87L464.26,216.81L511.4,215.14L512.58,215.12L576.2,214.23L577.38,214.22L705.82,213.88L707,213.88" style="vector-effect: non-scaling-stroke; fill: none; stroke: rgb(128, 0, 128); stroke-opacity: 1; stroke-width: 2px; opacity: 1;"/></g><g class="points"/><g class="text"/></g><g class="trace scatter trace7240d4" style="stroke-miterlimit: 2; opacity: 1;"><g class="fills"/><g class="errorbars"/><g class="lines"><path class="js-line" d="M0,213.61L173.22,214.34L174.39,214.36L226.24,215.95L227.42,216.01L259.23,218.33L260.41,218.45L285.16,221.9L286.34,222.12L304.01,226.26L305.19,226.61L318.15,231.21L319.33,231.72L328.76,236.54L329.93,237.26L337,242.5L338.18,243.57L342.9,248.82L344.07,250.48L347.61,257.04L348.79,260.12L351.14,269.65L352.32,279.14L353.15,295.6L353.26,301.14L353.38,310.61" style="vector-effect: non-scaling-stroke; fill: none; stroke: rgb(148, 0, 211); stroke-opacity: 1; stroke-width: 2px; opacity: 1;"/><path class="js-line" d="M353.62,310.61L354.68,279.14L355.86,269.65L358.21,260.12L359.39,257.04L362.93,250.48L364.11,248.82L368.82,243.57L370,242.5L377.07,237.26L378.25,236.54L387.67,231.72L388.85,231.21L401.81,226.61L402.99,226.26L419.49,222.35L420.67,222.12L440.7,219.11L441.88,218.97L470.16,216.54L471.33,216.47L511.4,214.82L512.58,214.79L578.56,213.83L579.74,213.83L695.22,213.6L696.4,213.61L707,213.61" style="vector-effect: non-scaling-stroke; fill: none; stroke: rgb(148, 0, 211); stroke-opacity: 1; stroke-width: 2px; opacity: 1;"/></g><g class="points"/><g class="text"/></g><g class="trace scatter tracef8f275" style="stroke-miterlimit: 2; opacity: 1;"><g class="fills"/><g class="errorbars"/><g class="lines"><path class="js-line" d="M0,213.45L89.55,213.44L90.73,213.44L179.11,214.19L180.29,214.22L222.71,215.66L223.88,215.72L254.52,218.23L255.7,218.37L274.55,221.36L275.73,221.6L289.87,225.29L291.05,225.67L302.83,230.39L304.01,230.96L313.44,236.46L314.62,237.27L322.86,244.03L324.04,245.17L331.11,253.26L332.29,254.87L338.18,264.46L339.36,266.8L344.07,278.48L345.25,282.27L348.79,297.94L349.97,305.9L351.14,317.06L352.32,336.06L353.15,368.98L353.26,380.06L353.38,399" style="vector-effect: non-scaling-stroke; fill: none; stroke: rgb(0, 0, 255); stroke-opacity: 1; stroke-width: 2px; opacity: 1;"/><path class="js-line" d="M353.62,399L354.68,336.06L355.86,317.06L358.21,297.94L359.39,291.72L362.93,278.48L364.11,275.11L368.82,264.46L370,262.29L375.89,253.26L377.07,251.74L384.14,244.03L385.32,242.94L393.56,236.46L394.74,235.67L404.17,230.39L405.35,229.83L417.13,225.29L418.31,224.92L432.45,221.36L433.63,221.12L451.3,218.37L452.48,218.23L476.05,216.15L477.23,216.07L516.11,214.46L517.29,214.43L579.74,213.58L580.92,213.58L688.15,213.42L689.33,213.43L707,213.45" style="vector-effect: non-scaling-stroke; fill: none; stroke: rgb(0, 0, 255); stroke-opacity: 1; stroke-width: 2px; opacity: 1;"/></g><g class="points"/><g class="text"/></g></g></g><g class="overplot"/><path class="xlines-above crisp" d="M79,520.5H787" style="fill: none; stroke-width: 1px; stroke: rgb(68, 68, 68); stroke-opacity: 1;"/><path class="ylines-above crisp" d="M79.5,100V520" style="fill: none; stroke-width: 1px; stroke: rgb(68, 68, 68); stroke-opacity: 1;"/><g class="overlines-above"/><g class="xaxislayer-above"><g class="xtick"><text text-anchor="middle" x="0" y="535.4" transform="translate(80,0)" style="font-family: 'Open Sans', verdana, arial, sans-serif; font-size: 12px; fill: rgb(68, 68, 68); fill-opacity: 1; white-space: pre;">−3</text></g><g class="xtick"><text text-anchor="middle" x="0" y="535.4" transform="translate(197.82999999999998,0)" style="font-family: 'Open Sans', verdana, arial, sans-serif; font-size: 12px; fill: rgb(68, 68, 68); fill-opacity: 1; white-space: pre;">−2</text></g><g class="xtick"><text text-anchor="middle" x="0" y="535.4" transform="translate(315.66999999999996,0)" style="font-family: 'Open Sans', verdana, arial, sans-serif; font-size: 12px; fill: rgb(68, 68, 68); fill-opacity: 1; white-space: pre;">−1</text></g><g class="xtick"><text text-anchor="middle" x="0" y="535.4" transform="translate(433.5,0)" style="font-family: 'Open Sans', verdana, arial, sans-serif; font-size: 12px; fill: rgb(68, 68, 68); fill-opacity: 1; white-space: pre;">0</text></g><g class="xtick"><text text-anchor="middle" x="0" y="535.4" transform="translate(551.3299999999999,0)" style="font-family: 'Open Sans', verdana, arial, sans-serif; font-size: 12px; fill: rgb(68, 68, 68); fill-opacity: 1; white-space: pre;">1</text></g><g class="xtick"><text text-anchor="middle" x="0" y="535.4" transform="translate(669.17,0)" style="font-family: 'Open Sans', verdana, arial, sans-serif; font-size: 12px; fill: rgb(68, 68, 68); fill-opacity: 1; white-space: pre;">2</text></g><g class="xtick"><text text-anchor="middle" x="0" y="535.4" transform="translate(787,0)" style="font-family: 'Open Sans', verdana, arial, sans-serif; font-size: 12px; fill: rgb(68, 68, 68); fill-opacity: 1; white-space: pre;">3</text></g></g><g class="yaxislayer-above"><g class="ytick"><text text-anchor="end" x="76.6" y="4.199999999999999" transform="translate(0,453.09)" style="font-family: 'Open Sans', verdana, arial, sans-serif; font-size: 12px; fill: rgb(68, 68, 68); fill-opacity: 1; white-space: pre;">−20</text></g><g class="ytick"><text text-anchor="end" x="76.6" y="4.199999999999999" transform="translate(0,384.78)" style="font-family: 'Open Sans', verdana, arial, sans-serif; font-size: 12px; fill: rgb(68, 68, 68); fill-opacity: 1; white-space: pre;">−10</text></g><g class="ytick"><text text-anchor="end" x="76.6" y="4.199999999999999" transform="translate(0,316.47)" style="font-family: 'Open Sans', verdana, arial, sans-serif; font-size: 12px; fill: rgb(68, 68, 68); fill-opacity: 1; white-space: pre;">0</text></g><g class="ytick"><text text-anchor="end" x="76.6" y="4.199999999999999" transform="translate(0,248.16)" style="font-family: 'Open Sans', verdana, arial, sans-serif; font-size: 12px; fill: rgb(68, 68, 68); fill-opacity: 1; white-space: pre;">10</text></g><g class="ytick"><text text-anchor="end" x="76.6" y="4.199999999999999" transform="translate(0,179.85)" style="font-family: 'Open Sans', verdana, arial, sans-serif; font-size: 12px; fill: rgb(68, 68, 68); fill-opacity: 1; white-space: pre;">20</text></g><g class="ytick"><text text-anchor="end" x="76.6" y="4.199999999999999" transform="translate(0,111.53)" style="font-family: 'Open Sans', verdana, arial, sans-serif; font-size: 12px; fill: rgb(68, 68, 68); fill-opacity: 1; white-space: pre;">30</text></g></g><g class="overaxes-above"/></g></g><g class="polarlayer"/><g class="ternarylayer"/><g class="geolayer"/><g class="funnelarealayer"/><g class="pielayer"/><g class="treemaplayer"/><g class="sunburstlayer"/><g class="glimages"/><defs id="topdefs-984cdf"><g class="clips"/><clipPath id="legend984cdf"><rect width="87" height="124" x="0" y="0"/></clipPath></defs><g class="layer-above"><g class="imagelayer"/><g class="shapelayer"/></g><g class="infolayer"><g class="legend" pointer-events="all" transform="translate(801.14,100)"><rect class="bg" shape-rendering="crispEdges" style="stroke: rgb(68, 68, 68); stroke-opacity: 1; fill: rgb(255, 255, 255); fill-opacity: 1; stroke-width: 0px;" width="87" height="124" x="0" y="0"/><g class="scrollbox" transform="" clip-path="url('#legend984cdf')"><g class="groups"><g class="traces" transform="translate(0,14.5)" style="opacity: 1;"><text class="legendtext" text-anchor="start" x="40" y="4.680000000000001" style="font-family: 'Open Sans', verdana, arial, sans-serif; font-size: 12px; fill: rgb(68, 68, 68); fill-opacity: 1; white-space: pre;">p=1</text><g class="layers" style="opacity: 1;"><g class="legendfill"/><g class="legendlines"><path class="js-line" d="M5,0h30" style="fill: none; stroke: rgb(255, 0, 0); stroke-opacity: 1; stroke-width: 2px;"/></g><g class="legendsymbols"><g class="legendpoints"/></g></g><rect class="legendtoggle" x="0" y="-9.5" width="82" height="19" style="fill: rgb(0, 0, 0); fill-opacity: 0;"/></g><g class="traces" transform="translate(0,33.5)" style="opacity: 1;"><text class="legendtext" text-anchor="start" x="40" y="4.680000000000001" style="font-family: 'Open Sans', verdana, arial, sans-serif; font-size: 12px; fill: rgb(68, 68, 68); fill-opacity: 1; white-space: pre;">p=0.5</text><g class="layers" style="opacity: 1;"><g class="legendfill"/><g class="legendlines"><path class="js-line" d="M5,0h30" style="fill: none; stroke: rgb(255, 127, 14); stroke-opacity: 1; stroke-width: 2px;"/></g><g class="legendsymbols"><g class="legendpoints"/></g></g><rect class="legendtoggle" x="0" y="-9.5" width="82" height="19" style="fill: rgb(0, 0, 0); fill-opacity: 0;"/></g><g class="traces" transform="translate(0,52.5)" style="opacity: 1;"><text class="legendtext" text-anchor="start" x="40" y="4.680000000000001" style="font-family: 'Open Sans', verdana, arial, sans-serif; font-size: 12px; fill: rgb(68, 68, 68); fill-opacity: 1; white-space: pre;">p=0.25</text><g class="layers" style="opacity: 1;"><g class="legendfill"/><g class="legendlines"><path class="js-line" d="M5,0h30" style="fill: none; stroke: rgb(44, 160, 44); stroke-opacity: 1; stroke-width: 2px;"/></g><g class="legendsymbols"><g class="legendpoints"/></g></g><rect class="legendtoggle" x="0" y="-9.5" width="82" height="19" style="fill: rgb(0, 0, 0); fill-opacity: 0;"/></g><g class="traces" transform="translate(0,71.5)" style="opacity: 1;"><text class="legendtext" text-anchor="start" x="40" y="4.680000000000001" style="font-family: 'Open Sans', verdana, arial, sans-serif; font-size: 12px; fill: rgb(68, 68, 68); fill-opacity: 1; white-space: pre;">p=-1</text><g class="layers" style="opacity: 1;"><g class="legendfill"/><g class="legendlines"><path class="js-line" d="M5,0h30" style="fill: none; stroke: rgb(128, 0, 128); stroke-opacity: 1; stroke-width: 2px;"/></g><g class="legendsymbols"><g class="legendpoints"/></g></g><rect class="legendtoggle" x="0" y="-9.5" width="82" height="19" style="fill: rgb(0, 0, 0); fill-opacity: 0;"/></g><g class="traces" transform="translate(0,90.5)" style="opacity: 1;"><text class="legendtext" text-anchor="start" x="40" y="4.680000000000001" style="font-family: 'Open Sans', verdana, arial, sans-serif; font-size: 12px; fill: rgb(68, 68, 68); fill-opacity: 1; white-space: pre;">p=-0.5</text><g class="layers" style="opacity: 1;"><g class="legendfill"/><g class="legendlines"><path class="js-line" d="M5,0h30" style="fill: none; stroke: rgb(148, 0, 211); stroke-opacity: 1; stroke-width: 2px;"/></g><g class="legendsymbols"><g class="legendpoints"/></g></g><rect class="legendtoggle" x="0" y="-9.5" width="82" height="19" style="fill: rgb(0, 0, 0); fill-opacity: 0;"/></g><g class="traces" transform="translate(0,109.5)" style="opacity: 1;"><text class="legendtext" text-anchor="start" x="40" y="4.680000000000001" style="font-family: 'Open Sans', verdana, arial, sans-serif; font-size: 12px; fill: rgb(68, 68, 68); fill-opacity: 1; white-space: pre;">p=-0.25</text><g class="layers" style="opacity: 1;"><g class="legendfill"/><g class="legendlines"><path class="js-line" d="M5,0h30" style="fill: none; stroke: rgb(0, 0, 255); stroke-opacity: 1; stroke-width: 2px;"/></g><g class="legendsymbols"><g class="legendpoints"/></g></g><rect class="legendtoggle" x="0" y="-9.5" width="82" height="19" style="fill: rgb(0, 0, 0); fill-opacity: 0;"/></g></g></g><rect class="scrollbar" rx="20" ry="3" width="0" height="0" style="fill: rgb(128, 139, 164); fill-opacity: 1;" x="0" y="0"/></g><g class="g-gtitle"><text class="gtitle" x="450" y="50" text-anchor="middle" dy="0em" style="font-family: 'Open Sans', verdana, arial, sans-serif; font-size: 17px; fill: rgb(68, 68, 68); opacity: 1; font-weight: normal; white-space: pre;">General Complete Elliptic Integral (cel)</text></g><g class="g-xtitle"><text class="xtitle" x="433.5" y="572" text-anchor="middle" style="font-family: 'Open Sans', verdana, arial, sans-serif; font-size: 14px; fill: rgb(68, 68, 68); opacity: 1; font-weight: normal; white-space: pre;">kc</text></g><g class="g-ytitle"><text class="ytitle" transform="rotate(-90,42,310)" x="42" y="310" text-anchor="middle" style="font-family: 'Open Sans', verdana, arial, sans-serif; font-size: 14px; fill: rgb(68, 68, 68); opacity: 1; font-weight: normal; white-space: pre;">cel(kc,p,1,1)</text></g><g class="annotation" data-index="0" style="opacity: 1;"><g class="annotation-text-g" transform="rotate(0,709.0600000000001,574)"><g class="cursor-pointer" transform="translate(575,565)"><rect class="bg" x="0.5" y="0.5" width="268" height="17" style="stroke-width: 1px; stroke: rgb(0, 0, 0); stroke-opacity: 0; fill: rgb(0, 0, 0); fill-opacity: 0;"/><text class="annotation-text" text-anchor="middle" x="134.5" y="13" style="font-family: 'Open Sans', verdana, arial, sans-serif; font-size: 12px; fill: rgb(68, 68, 68); fill-opacity: 1; white-space: pre; pointer-events: all;">Generated using the function <a xlink:show="new" target="_blank" xlink:href="https://docs.rs/ellip/latest/ellip/bulirsch/fn.cel.html" style="cursor:pointer">cel</a> from <a xlink:show="new" target="_blank" xlink:href="https://crates.io/crates/ellip" style="cursor:pointer">ellip</a> v0.3.5</text></g></g></g></g></svg>