<svg class="main-svg" xmlns="http://www.w3.org/2000/svg" xmlns:xlink="http://www.w3.org/1999/xlink" width="900" height="600" style="" viewBox="0 0 900 600"><rect x="0" y="0" width="900" height="600" style="fill: rgb(255, 255, 255); fill-opacity: 1;"/><defs id="defs-9bda76"><g class="clips"><clipPath id="clip9bda76xyplot" class="plotclip"><rect width="668" height="420"/></clipPath><clipPath class="axesclip" id="clip9bda76x"><rect x="80" y="0" width="668" height="600"/></clipPath><clipPath class="axesclip" id="clip9bda76y"><rect x="0" y="100" width="900" height="420"/></clipPath><clipPath class="axesclip" id="clip9bda76xy"><rect x="80" y="100" width="668" height="420"/></clipPath></g><g class="gradients"/></defs><g class="bglayer"/><g class="layer-below"><g class="imagelayer"/><g class="shapelayer"/></g><g class="cartesianlayer"><g class="subplot xy"><g class="layer-subplot"><g class="shapelayer"/><g class="imagelayer"/></g><g class="gridlayer"><g class="x"><path class="xgrid crisp" transform="translate(247,0)" d="M0,100v420" style="stroke: rgb(238, 238, 238); stroke-opacity: 1; stroke-width: 1px;"/><path class="xgrid crisp" transform="translate(581,0)" d="M0,100v420" style="stroke: rgb(238, 238, 238); stroke-opacity: 1; stroke-width: 1px;"/></g><g class="y"><path class="ygrid crisp" transform="translate(0,415)" d="M80,0h668" style="stroke: rgb(238, 238, 238); stroke-opacity: 1; stroke-width: 1px;"/><path class="ygrid crisp" transform="translate(0,205)" d="M80,0h668" style="stroke: rgb(238, 238, 238); stroke-opacity: 1; stroke-width: 1px;"/></g></g><g class="zerolinelayer"><path class="xzl zl crisp" transform="translate(414,0)" d="M0,100v420" style="stroke: rgb(68, 68, 68); stroke-opacity: 1; stroke-width: 1px;"/><path class="yzl zl crisp" transform="translate(0,310)" d="M80,0h668" style="stroke: rgb(68, 68, 68); stroke-opacity: 1; stroke-width: 1px;"/></g><path class="xlines-below"/><path class="ylines-below"/><g class="overlines-below"/><g class="xaxislayer-below"/><g class="yaxislayer-below"/><g class="overaxes-below"/><g class="plot" transform="translate(80,100)" clip-path="url('#clip9bda76xyplot')"><g class="scatterlayer mlayer"><g class="trace scatter trace1882bc" style="stroke-miterlimit: 2; opacity: 1;"><g class="fills"/><g class="errorbars"/><g class="lines"><path class="js-line" d="M0,210L18.04,195.81L18.7,195.36L28.06,190.01L28.72,189.7L36.74,187.02L37.41,186.88L44.76,186.31L45.42,186.35L52.1,187.55L52.77,187.76L60.12,190.96L60.79,191.34L68.8,196.82L69.47,197.35L80.83,207.45L81.5,208.09L98.86,223.7L99.53,224.21L107.55,229.4L108.22,229.75L115.56,232.63L116.23,232.81L122.91,233.71L123.58,233.72L130.26,232.98L130.93,232.83L138.28,230.3L138.94,229.99L146.96,225.52L147.63,225.08L158.32,217.19L158.98,216.65L187.71,194.06L188.38,193.64L197.06,189.13L197.73,188.86L205.74,186.65L206.41,186.55L213.09,186.4L213.76,186.47L220.44,187.98L221.11,188.21L228.46,191.73L229.12,192.13L237.81,198.43L238.48,198.99L251.84,211.28L252.5,211.91L265.86,223.7L266.53,224.21L274.55,229.4L275.22,229.75L282.56,232.63L283.23,232.81L289.91,233.71L290.58,233.72L297.26,232.98L297.93,232.83L305.28,230.3L305.94,229.99L313.96,225.52L314.63,225.08L325.32,217.19L325.98,216.65L354.71,194.06L355.38,193.64L364.06,189.13L364.73,188.86L372.74,186.65L373.41,186.55L380.09,186.4L380.76,186.47L387.44,187.98L388.11,188.21L395.46,191.73L396.12,192.13L404.81,198.43L405.48,198.99L418.84,211.28L419.5,211.91L432.86,223.7L433.53,224.21L441.55,229.4L442.22,229.75L449.56,232.63L450.23,232.81L456.91,233.71L457.58,233.72L464.26,232.98L464.93,232.83L472.28,230.3L472.94,229.99L480.96,225.52L481.63,225.08L492.32,217.19L492.98,216.65L521.71,194.06L522.38,193.64L531.06,189.13L531.73,188.86L539.74,186.65L540.41,186.55L547.09,186.4L547.76,186.47L554.44,187.98L555.11,188.21L562.46,191.73L563.12,192.13L571.81,198.43L572.48,198.99L585.84,211.28L586.5,211.91L599.86,223.7L600.53,224.21L608.55,229.4L609.22,229.75L616.56,232.63L617.23,232.81L623.91,233.71L624.58,233.72L631.26,232.98L631.93,232.83L639.28,230.3L639.94,229.99L647.96,225.52L648.63,225.08L659.32,217.19L659.98,216.65L668,210" style="vector-effect: non-scaling-stroke; fill: none; stroke: rgb(255, 0, 0); stroke-opacity: 1; stroke-width: 2px; opacity: 1;"/></g><g class="points"/><g class="text"/></g><g class="trace scatter trace78063a" style="stroke-miterlimit: 2; opacity: 1;"><g class="fills"/><g class="errorbars"/><g class="lines"><path class="js-line" d="M0,210L17.37,183.8L18.04,182.9L26.72,172.55L27.39,171.87L34.07,166.17L34.74,165.72L40.08,163L40.75,162.77L46.09,161.99L46.76,162.02L51.44,163.11L52.1,163.4L56.78,166.28L57.45,166.82L62.79,172.36L63.46,173.2L69.47,182.12L70.14,183.26L78.16,198.64L78.82,200.03L97.53,237.88L98.2,238.99L104.21,247.64L104.88,248.45L110.22,253.72L110.89,254.23L116.23,257.14L116.9,257.36L121.58,258.01L122.24,257.99L126.92,257L127.59,256.75L132.93,253.83L133.6,253.36L140.28,247.45L140.95,246.75L148.3,237.98L148.96,237.1L159.65,221.56L160.32,220.52L186.37,181.15L187.04,180.29L195.72,170.56L196.39,169.94L203.07,164.89L203.74,164.51L209.08,162.41L209.75,162.27L214.43,162.09L215.1,162.18L219.77,163.71L220.44,164.06L225.12,167.4L225.78,168.01L231.13,174.07L231.8,174.97L238.48,185.61L239.14,186.82L247.83,204.27L248.5,205.7L262.52,234.39L263.19,235.58L269.87,245.93L270.54,246.8L276.55,253.18L277.22,253.72L282.56,256.89L283.23,257.14L287.91,258.01L288.58,258.01L293.25,257.23L293.92,257L299.26,254.28L299.93,253.83L305.94,248.79L306.61,248.13L313.96,239.71L314.63,238.85L324.65,224.63L325.32,223.61L353.37,181.15L354.04,180.29L362.72,170.56L363.39,169.94L370.07,164.89L370.74,164.51L376.08,162.41L376.75,162.27L381.43,162.09L382.1,162.18L386.77,163.71L387.44,164.06L392.12,167.4L392.78,168.01L398.13,174.07L398.8,174.97L405.48,185.61L406.14,186.82L414.83,204.27L415.5,205.7L429.52,234.39L430.19,235.58L436.87,245.93L437.54,246.8L443.55,253.18L444.22,253.72L449.56,256.89L450.23,257.14L454.91,258.01L455.58,258.01L460.25,257.23L460.92,257L466.26,254.28L466.93,253.83L472.94,248.79L473.61,248.13L480.96,239.71L481.63,238.85L491.65,224.63L492.32,223.61L520.37,181.15L521.04,180.29L529.72,170.56L530.39,169.94L537.07,164.89L537.74,164.51L543.08,162.41L543.75,162.27L548.43,162.09L549.1,162.18L553.77,163.71L554.44,164.06L559.12,167.4L559.78,168.01L565.13,174.07L565.8,174.97L572.48,185.61L573.14,186.82L581.83,204.27L582.5,205.7L596.52,234.39L597.19,235.58L603.87,245.93L604.54,246.8L610.55,253.18L611.22,253.72L616.56,256.89L617.23,257.14L621.91,258.01L622.58,258.01L627.25,257.23L627.92,257L633.26,254.28L633.93,253.83L639.94,248.79L640.61,248.13L647.96,239.71L648.63,238.85L658.65,224.63L659.32,223.61L668,210" style="vector-effect: non-scaling-stroke; fill: none; stroke: rgb(0, 0, 255); stroke-opacity: 1; stroke-width: 2px; opacity: 1;"/></g><g class="points"/><g class="text"/></g><g class="trace scatter traceb84511" style="stroke-miterlimit: 2; opacity: 1;"><g class="fills"/><g class="errorbars"/><g class="lines"><path class="js-line" d="M0,210L20.04,154.97L20.71,153.3L30.73,130.57L31.4,129.23L38.08,117.35L38.74,116.33L44.76,108.66L45.42,107.99L50.1,104.5L50.77,104.18L54.78,103.32L55.44,103.36L58.78,104.47L59.45,104.88L62.79,108.04L63.46,108.9L66.8,114.61L67.47,116.05L70.81,125.13L71.48,127.37L75.48,144.74L76.15,148.43L79.49,171.49L80.16,177.15L90.18,267.6L90.85,271.57L94.86,290.22L95.52,292.63L99.53,303.95L100.2,305.39L104.21,311.96L104.88,312.75L108.22,315.53L108.88,315.88L112.22,316.68L112.89,316.67L116.9,315.5L117.57,315.13L121.58,312.01L122.24,311.34L127.59,304.66L128.26,303.67L134.94,292.08L135.6,290.77L143.62,273.2L144.29,271.6L154.31,245.75L154.98,243.93L189.71,148.4L190.38,146.8L199.73,126.63L200.4,125.37L207.08,114.38L207.75,113.45L213.09,107.37L213.76,106.78L218.44,103.91L219.1,103.69L222.44,103.36L223.11,103.46L226.45,104.88L227.12,105.37L230.46,108.9L231.13,109.86L234.47,116.05L235.14,117.61L239.14,129.78L239.81,132.36L243.15,148.43L243.82,152.4L247.16,177.15L247.83,183.17L256.51,263.33L257.18,267.6L261.19,287.64L261.86,290.22L265.86,302.39L266.53,303.95L270.54,311.1L271.21,311.96L275.22,315.53L275.88,315.88L279.22,316.68L279.89,316.67L283.9,315.5L284.57,315.13L288.58,312.01L289.24,311.34L294.59,304.66L295.26,303.67L301.94,292.08L302.6,290.77L310.62,273.2L311.29,271.6L321.31,245.75L321.98,243.93L356.71,148.4L357.38,146.8L366.73,126.63L367.4,125.37L374.08,114.38L374.75,113.45L380.09,107.37L380.76,106.78L385.44,103.91L386.1,103.69L389.44,103.36L390.11,103.46L393.45,104.88L394.12,105.37L397.46,108.9L398.13,109.86L401.47,116.05L402.14,117.61L406.14,129.78L406.81,132.36L410.15,148.43L410.82,152.4L414.16,177.15L414.83,183.17L423.51,263.33L424.18,267.6L428.19,287.64L428.86,290.22L432.86,302.39L433.53,303.95L437.54,311.1L438.21,311.96L442.22,315.53L442.88,315.88L446.22,316.68L446.89,316.67L450.9,315.5L451.57,315.13L455.58,312.01L456.24,311.34L461.59,304.66L462.26,303.67L468.94,292.08L469.6,290.77L477.62,273.2L478.29,271.6L488.31,245.75L488.98,243.93L523.71,148.4L524.38,146.8L533.73,126.63L534.4,125.37L541.08,114.38L541.75,113.45L547.09,107.37L547.76,106.78L552.44,103.91L553.1,103.69L556.44,103.36L557.11,103.46L560.45,104.88L561.12,105.37L564.46,108.9L565.13,109.86L568.47,116.05L569.14,117.61L573.14,129.78L573.81,132.36L577.15,148.43L577.82,152.4L581.16,177.15L581.83,183.17L590.51,263.33L591.18,267.6L595.19,287.64L595.86,290.22L599.86,302.39L600.53,303.95L604.54,311.1L605.21,311.96L609.22,315.53L609.88,315.88L613.22,316.68L613.89,316.67L617.9,315.5L618.57,315.13L622.58,312.01L623.24,311.34L628.59,304.66L629.26,303.67L635.94,292.08L636.6,290.77L644.62,273.2L645.29,271.6L655.31,245.75L655.98,243.93L668,210" style="vector-effect: non-scaling-stroke; fill: none; stroke: rgb(0, 128, 0); stroke-opacity: 1; stroke-width: 2px; opacity: 1;"/></g><g class="points"/><g class="text"/></g><g class="trace scatter traceb6e153" style="stroke-miterlimit: 2; opacity: 1;"><g class="fills"/><g class="errorbars"/><g class="lines"><path class="js-line" d="M0,210L22.04,136.2L22.71,134.14L34.07,101.91L34.74,100.2L42.75,81.73L43.42,80.38L50.1,68.57L50.77,67.58L56.11,61.03L56.78,60.4L61.46,57.27L62.12,57.02L65.46,56.65L66.13,56.76L68.8,57.92L69.47,58.4L72.14,61.31L72.81,62.31L75.48,67.78L76.15,69.62L78.82,79.89L79.49,83.58L81.5,100.69L82.16,110.87L82.83,128.34L83.5,210L84.84,309.13L85.5,319.31L88.18,340.11L88.84,343.25L92.18,353.84L92.85,355.28L96.19,360.35L96.86,361.02L100.2,363.07L100.87,363.24L104.21,363.17L104.88,362.98L108.88,360.73L109.55,360.19L114.23,355.17L114.9,354.29L120.91,344.74L121.58,343.51L128.92,327.96L129.59,326.38L138.28,303.63L138.94,301.73L149.63,268.97L150.3,266.81L168.34,205.36L169,203.04L189.04,136.2L189.71,134.14L201.07,101.91L201.74,100.2L209.75,81.73L210.42,80.38L217.1,68.57L217.77,67.58L223.11,61.03L223.78,60.4L228.46,57.27L229.12,57.02L232.46,56.65L233.13,56.76L235.8,57.92L236.47,58.4L239.14,61.31L239.81,62.31L242.48,67.78L243.15,69.62L245.82,79.89L246.49,83.58L248.5,100.69L249.16,110.87L249.83,128.34L250.5,210L251.84,309.13L252.5,319.31L255.18,340.11L255.84,343.25L259.18,353.84L259.85,355.28L263.19,360.35L263.86,361.02L267.2,363.07L267.87,363.24L271.21,363.17L271.88,362.98L275.88,360.73L276.55,360.19L281.23,355.17L281.9,354.29L287.91,344.74L288.58,343.51L295.92,327.96L296.59,326.38L305.28,303.63L305.94,301.73L316.63,268.97L317.3,266.81L335.34,205.36L336,203.04L356.04,136.2L356.71,134.14L368.07,101.91L368.74,100.2L376.75,81.73L377.42,80.38L384.1,68.57L384.77,67.58L390.11,61.03L390.78,60.4L395.46,57.27L396.12,57.02L399.46,56.65L400.13,56.76L402.8,57.92L403.47,58.4L406.14,61.31L406.81,62.31L409.48,67.78L410.15,69.62L412.82,79.89L413.49,83.58L415.5,100.69L416.16,110.87L416.83,128.34L417.5,210L418.84,309.13L419.5,319.31L422.18,340.11L422.84,343.25L426.18,353.84L426.85,355.28L430.19,360.35L430.86,361.02L434.2,363.07L434.87,363.24L438.21,363.17L438.88,362.98L442.88,360.73L443.55,360.19L448.23,355.17L448.9,354.29L454.91,344.74L455.58,343.51L462.92,327.96L463.59,326.38L472.28,303.63L472.94,301.73L483.63,268.97L484.3,266.81L502.34,205.36L503,203.04L523.04,136.2L523.71,134.14L535.07,101.91L535.74,100.2L543.75,81.73L544.42,80.38L551.1,68.57L551.77,67.58L557.11,61.03L557.78,60.4L562.46,57.27L563.12,57.02L566.46,56.65L567.13,56.76L569.8,57.92L570.47,58.4L573.14,61.31L573.81,62.31L576.48,67.78L577.15,69.62L579.82,79.89L580.49,83.58L582.5,100.69L583.16,110.87L583.83,128.34L584.5,210L585.84,309.13L586.5,319.31L589.18,340.11L589.84,343.25L593.18,353.84L593.85,355.28L597.19,360.35L597.86,361.02L601.2,363.07L601.87,363.24L605.21,363.17L605.88,362.98L609.88,360.73L610.55,360.19L615.23,355.17L615.9,354.29L621.91,344.74L622.58,343.51L629.92,327.96L630.59,326.38L639.28,303.63L639.94,301.73L650.63,268.97L651.3,266.81L668,210" style="vector-effect: non-scaling-stroke; fill: none; stroke: rgb(128, 0, 128); stroke-opacity: 1; stroke-width: 2px; opacity: 1;"/></g><g class="points"/><g class="text"/></g></g></g><g class="overplot"/><path class="xlines-above crisp" d="M79,520.5H748" style="fill: none; stroke-width: 1px; stroke: rgb(68, 68, 68); stroke-opacity: 1;"/><path class="ylines-above crisp" d="M79.5,100V520" style="fill: none; stroke-width: 1px; stroke: rgb(68, 68, 68); stroke-opacity: 1;"/><g class="overlines-above"/><g class="xaxislayer-above"><g class="xtick"><text text-anchor="middle" x="0" y="535.4" transform="translate(80,0)" style="font-family: 'Open Sans', verdana, arial, sans-serif; font-size: 12px; fill: rgb(68, 68, 68); fill-opacity: 1; white-space: pre;">-2π</text></g><g class="xtick"><text text-anchor="middle" x="0" y="535.4" transform="translate(247,0)" style="font-family: 'Open Sans', verdana, arial, sans-serif; font-size: 12px; fill: rgb(68, 68, 68); fill-opacity: 1; white-space: pre;">-1π</text></g><g class="xtick"><text text-anchor="middle" x="0" y="535.4" transform="translate(414,0)" style="font-family: 'Open Sans', verdana, arial, sans-serif; font-size: 12px; fill: rgb(68, 68, 68); fill-opacity: 1; white-space: pre;">0</text></g><g class="xtick"><text text-anchor="middle" x="0" y="535.4" transform="translate(581,0)" style="font-family: 'Open Sans', verdana, arial, sans-serif; font-size: 12px; fill: rgb(68, 68, 68); fill-opacity: 1; white-space: pre;">π</text></g><g class="xtick"><text text-anchor="middle" x="0" y="535.4" transform="translate(748,0)" style="font-family: 'Open Sans', verdana, arial, sans-serif; font-size: 12px; fill: rgb(68, 68, 68); fill-opacity: 1; white-space: pre;">2π</text></g></g><g class="yaxislayer-above"><g class="ytick"><text text-anchor="end" x="76.6" y="4.199999999999999" transform="translate(0,520)" style="font-family: 'Open Sans', verdana, arial, sans-serif; font-size: 12px; fill: rgb(68, 68, 68); fill-opacity: 1; white-space: pre;">−1</text></g><g class="ytick"><text text-anchor="end" x="76.6" y="4.199999999999999" transform="translate(0,415)" style="font-family: 'Open Sans', verdana, arial, sans-serif; font-size: 12px; fill: rgb(68, 68, 68); fill-opacity: 1; white-space: pre;">−0.5</text></g><g class="ytick"><text text-anchor="end" x="76.6" y="4.199999999999999" transform="translate(0,310)" style="font-family: 'Open Sans', verdana, arial, sans-serif; font-size: 12px; fill: rgb(68, 68, 68); fill-opacity: 1; white-space: pre;">0</text></g><g class="ytick"><text text-anchor="end" x="76.6" y="4.199999999999999" transform="translate(0,205)" style="font-family: 'Open Sans', verdana, arial, sans-serif; font-size: 12px; fill: rgb(68, 68, 68); fill-opacity: 1; white-space: pre;">0.5</text></g><g class="ytick"><text text-anchor="end" x="76.6" y="4.199999999999999" transform="translate(0,100)" style="font-family: 'Open Sans', verdana, arial, sans-serif; font-size: 12px; fill: rgb(68, 68, 68); fill-opacity: 1; white-space: pre;">1</text></g></g><g class="overaxes-above"/></g></g><g class="polarlayer"/><g class="ternarylayer"/><g class="geolayer"/><g class="funnelarealayer"/><g class="pielayer"/><g class="treemaplayer"/><g class="sunburstlayer"/><g class="glimages"/><defs id="topdefs-9bda76"><g class="clips"/><clipPath id="legend9bda76"><rect width="127" height="86" x="0" y="0"/></clipPath></defs><g class="layer-above"><g class="imagelayer"/><g class="shapelayer"/></g><g class="infolayer"><g class="legend" pointer-events="all" transform="translate(761.36,100)"><rect class="bg" shape-rendering="crispEdges" style="stroke: rgb(68, 68, 68); stroke-opacity: 1; fill: rgb(255, 255, 255); fill-opacity: 1; stroke-width: 0px;" width="127" height="86" x="0" y="0"/><g class="scrollbox" transform="" clip-path="url('#legend9bda76')"><g class="groups"><g class="traces" transform="translate(0,14.5)" style="opacity: 1;"><text class="legendtext" text-anchor="start" x="40" y="4.680000000000001" style="font-family: 'Open Sans', verdana, arial, sans-serif; font-size: 12px; fill: rgb(68, 68, 68); fill-opacity: 1; white-space: pre;">m=0.4</text><g class="layers" style="opacity: 1;"><g class="legendfill"/><g class="legendlines"><path class="js-line" d="M5,0h30" style="fill: none; stroke: rgb(255, 0, 0); stroke-opacity: 1; stroke-width: 2px;"/></g><g class="legendsymbols"><g class="legendpoints"/></g></g><rect class="legendtoggle" x="0" y="-9.5" width="122" height="19" style="fill: rgb(0, 0, 0); fill-opacity: 0;"/></g><g class="traces" transform="translate(0,33.5)" style="opacity: 1;"><text class="legendtext" text-anchor="start" x="40" y="4.680000000000001" style="font-family: 'Open Sans', verdana, arial, sans-serif; font-size: 12px; fill: rgb(68, 68, 68); fill-opacity: 1; white-space: pre;">m=0.7</text><g class="layers" style="opacity: 1;"><g class="legendfill"/><g class="legendlines"><path class="js-line" d="M5,0h30" style="fill: none; stroke: rgb(0, 0, 255); stroke-opacity: 1; stroke-width: 2px;"/></g><g class="legendsymbols"><g class="legendpoints"/></g></g><rect class="legendtoggle" x="0" y="-9.5" width="122" height="19" style="fill: rgb(0, 0, 0); fill-opacity: 0;"/></g><g class="traces" transform="translate(0,52.5)" style="opacity: 1;"><text class="legendtext" text-anchor="start" x="40" y="4.680000000000001" style="font-family: 'Open Sans', verdana, arial, sans-serif; font-size: 12px; fill: rgb(68, 68, 68); fill-opacity: 1; white-space: pre;">m=0.99</text><g class="layers" style="opacity: 1;"><g class="legendfill"/><g class="legendlines"><path class="js-line" d="M5,0h30" style="fill: none; stroke: rgb(0, 128, 0); stroke-opacity: 1; stroke-width: 2px;"/></g><g class="legendsymbols"><g class="legendpoints"/></g></g><rect class="legendtoggle" x="0" y="-9.5" width="122" height="19" style="fill: rgb(0, 0, 0); fill-opacity: 0;"/></g><g class="traces" transform="translate(0,71.5)" style="opacity: 1;"><text class="legendtext" text-anchor="start" x="40" y="4.680000000000001" style="font-family: 'Open Sans', verdana, arial, sans-serif; font-size: 12px; fill: rgb(68, 68, 68); fill-opacity: 1; white-space: pre;">m=0.999999</text><g class="layers" style="opacity: 1;"><g class="legendfill"/><g class="legendlines"><path class="js-line" d="M5,0h30" style="fill: none; stroke: rgb(128, 0, 128); stroke-opacity: 1; stroke-width: 2px;"/></g><g class="legendsymbols"><g class="legendpoints"/></g></g><rect class="legendtoggle" x="0" y="-9.5" width="122" height="19" style="fill: rgb(0, 0, 0); fill-opacity: 0;"/></g></g></g><rect class="scrollbar" rx="20" ry="3" width="0" height="0" style="fill: rgb(128, 139, 164); fill-opacity: 1;" x="0" y="0"/></g><g class="g-gtitle"><text class="gtitle" x="450" y="50" text-anchor="middle" dy="0em" style="font-family: 'Open Sans', verdana, arial, sans-serif; font-size: 17px; fill: rgb(68, 68, 68); opacity: 1; font-weight: normal; white-space: pre;">Jacobi Zeta Function Z(φ,m)</text></g><g class="g-xtitle"><text class="xtitle" x="414" y="572" text-anchor="middle" style="font-family: 'Open Sans', verdana, arial, sans-serif; font-size: 14px; fill: rgb(68, 68, 68); opacity: 1; font-weight: normal; white-space: pre;">φ</text></g><g class="g-ytitle"><text class="ytitle" transform="rotate(-90,42,310)" x="42" y="310" text-anchor="middle" style="font-family: 'Open Sans', verdana, arial, sans-serif; font-size: 14px; fill: rgb(68, 68, 68); opacity: 1; font-weight: normal; white-space: pre;">Z(φ,m)</text></g><g class="annotation" data-index="0" style="opacity: 1;"><g class="annotation-text-g" transform="rotate(0,625.44,574)"><g class="cursor-pointer" transform="translate(449,565)"><rect class="bg" x="0.5" y="0.5" width="351" height="17" style="stroke-width: 1px; stroke: rgb(0, 0, 0); stroke-opacity: 0; fill: rgb(0, 0, 0); fill-opacity: 0;"/><text class="annotation-text" text-anchor="middle" x="176" y="14" style="font-family: 'Open Sans', verdana, arial, sans-serif; font-size: 12px; fill: rgb(68, 68, 68); fill-opacity: 1; white-space: pre; pointer-events: all;">Generated using the function <a xlink:show="new" target="_blank" xlink:href="https://docs.rs/ellip/latest/ellip/fn.jacobi_zeta.html" style="cursor:pointer">jacobi_zeta</a> from <a xlink:show="new" target="_blank" xlink:href="https://crates.io/crates/ellip" style="cursor:pointer">ellip</a> v0.4.0</text></g></g></g></g></svg>