<svg class="main-svg" xmlns="http://www.w3.org/2000/svg" xmlns:xlink="http://www.w3.org/1999/xlink" width="900" height="600" style="" viewBox="0 0 900 600"><rect x="0" y="0" width="900" height="600" style="fill: rgb(255, 255, 255); fill-opacity: 1;"/><defs id="defs-a72b25"><g class="clips"><clipPath id="clipa72b25xyplot" class="plotclip"><rect width="680" height="420"/></clipPath><clipPath class="axesclip" id="clipa72b25x"><rect x="80" y="0" width="680" height="600"/></clipPath><clipPath class="axesclip" id="clipa72b25y"><rect x="0" y="100" width="900" height="420"/></clipPath><clipPath class="axesclip" id="clipa72b25xy"><rect x="80" y="100" width="680" height="420"/></clipPath></g><g class="gradients"/></defs><g class="bglayer"/><g class="layer-below"><g class="imagelayer"/><g class="shapelayer"/></g><g class="cartesianlayer"><g class="subplot xy"><g class="layer-subplot"><g class="shapelayer"/><g class="imagelayer"/></g><g class="gridlayer"><g class="x"><path class="xgrid crisp" transform="translate(250,0)" d="M0,100v420" style="stroke: rgb(238, 238, 238); stroke-opacity: 1; stroke-width: 1px;"/><path class="xgrid crisp" transform="translate(590,0)" d="M0,100v420" style="stroke: rgb(238, 238, 238); stroke-opacity: 1; stroke-width: 1px;"/></g><g class="y"><path class="ygrid crisp" transform="translate(0,415)" d="M80,0h680" style="stroke: rgb(238, 238, 238); stroke-opacity: 1; stroke-width: 1px;"/><path class="ygrid crisp" transform="translate(0,205)" d="M80,0h680" style="stroke: rgb(238, 238, 238); stroke-opacity: 1; stroke-width: 1px;"/></g></g><g class="zerolinelayer"><path class="xzl zl crisp" transform="translate(420,0)" d="M0,100v420" style="stroke: rgb(68, 68, 68); stroke-opacity: 1; stroke-width: 1px;"/><path class="yzl zl crisp" transform="translate(0,310)" d="M80,0h680" style="stroke: rgb(68, 68, 68); stroke-opacity: 1; stroke-width: 1px;"/></g><path class="xlines-below"/><path class="ylines-below"/><g class="overlines-below"/><g class="xaxislayer-below"/><g class="yaxislayer-below"/><g class="overaxes-below"/><g class="plot" transform="translate(80,100)" clip-path="url('#clipa72b25xyplot')"><g class="scatterlayer mlayer"><g class="trace scatter trace18c7f9" style="stroke-miterlimit: 2; opacity: 1;"><g class="fills"/><g class="errorbars"/><g class="lines"><path class="js-line" d="M0,210L18.36,195.81L19.04,195.36L28.56,190.01L29.24,189.7L37.4,187.02L38.08,186.88L45.56,186.31L46.24,186.35L53.04,187.55L53.72,187.76L61.2,190.96L61.88,191.34L70.04,196.82L70.72,197.35L82.28,207.45L82.96,208.09L101.32,224.21L102,224.71L110.84,230.08L111.52,230.4L118.32,232.81L119,232.97L125.8,233.72L126.48,233.71L133.96,232.66L134.64,232.48L142.12,229.68L142.8,229.35L151.64,224.19L152.32,223.73L163.88,215.02L164.56,214.47L188.36,195.81L189.04,195.36L198.56,190.01L199.24,189.7L207.4,187.02L208.08,186.88L215.56,186.31L216.24,186.35L223.04,187.55L223.72,187.76L231.2,190.96L231.88,191.34L240.04,196.82L240.72,197.35L252.28,207.45L252.96,208.09L271.32,224.21L272,224.71L280.84,230.08L281.52,230.4L288.32,232.81L289,232.97L295.8,233.72L296.48,233.71L303.96,232.66L304.64,232.48L312.12,229.68L312.8,229.35L321.64,224.19L322.32,223.73L333.88,215.02L334.56,214.47L358.36,195.81L359.04,195.36L368.56,190.01L369.24,189.7L377.4,187.02L378.08,186.88L385.56,186.31L386.24,186.35L393.04,187.55L393.72,187.76L401.2,190.96L401.88,191.34L410.04,196.82L410.72,197.35L422.28,207.45L422.96,208.09L441.32,224.21L442,224.71L450.84,230.08L451.52,230.4L458.32,232.81L459,232.97L465.8,233.72L466.48,233.71L473.96,232.66L474.64,232.48L482.12,229.68L482.8,229.35L491.64,224.19L492.32,223.73L503.88,215.02L504.56,214.47L528.36,195.81L529.04,195.36L538.56,190.01L539.24,189.7L547.4,187.02L548.08,186.88L555.56,186.31L556.24,186.35L563.04,187.55L563.72,187.76L571.2,190.96L571.88,191.34L580.04,196.82L580.72,197.35L592.28,207.45L592.96,208.09L611.32,224.21L612,224.71L620.84,230.08L621.52,230.4L628.32,232.81L629,232.97L635.8,233.72L636.48,233.71L643.96,232.66L644.64,232.48L652.12,229.68L652.8,229.35L661.64,224.19L662.32,223.73L673.88,215.02L674.56,214.47L680,210" style="vector-effect: non-scaling-stroke; fill: none; stroke: rgb(255, 0, 0); stroke-opacity: 1; stroke-width: 2px; opacity: 1;"/></g><g class="points"/><g class="text"/></g><g class="trace scatter trace15d27b" style="stroke-miterlimit: 2; opacity: 1;"><g class="fills"/><g class="errorbars"/><g class="lines"><path class="js-line" d="M0,210L17.68,183.8L18.36,182.9L27.2,172.55L27.88,171.87L34.68,166.17L35.36,165.72L40.8,163L41.48,162.77L46.92,161.99L47.6,162.02L52.36,163.11L53.04,163.4L57.8,166.28L58.48,166.82L63.92,172.36L64.6,173.2L70.72,182.12L71.4,183.26L79.56,198.64L80.24,200.03L99.28,237.88L99.96,238.99L106.76,248.45L107.44,249.22L112.88,254.23L113.56,254.71L119,257.36L119.68,257.54L124.44,257.99L125.12,257.93L129.88,256.75L130.56,256.47L136,253.36L136.68,252.86L142.8,247.45L143.48,246.75L150.96,237.98L151.64,237.1L162.52,221.56L163.2,220.52L189.04,182.02L189.72,181.15L197.88,171.87L198.56,171.21L205.36,165.72L206.04,165.29L211.48,162.77L212.16,162.58L216.92,161.99L217.6,162.02L222.36,163.11L223.04,163.4L227.8,166.28L228.48,166.82L233.92,172.36L234.6,173.2L240.72,182.12L241.4,183.26L249.56,198.64L250.24,200.03L269.28,237.88L269.96,238.99L276.76,248.45L277.44,249.22L282.88,254.23L283.56,254.71L289,257.36L289.68,257.54L294.44,257.99L295.12,257.93L299.88,256.75L300.56,256.47L306,253.36L306.68,252.86L312.8,247.45L313.48,246.75L320.96,237.98L321.64,237.1L332.52,221.56L333.2,220.52L359.04,182.02L359.72,181.15L367.88,171.87L368.56,171.21L375.36,165.72L376.04,165.29L381.48,162.77L382.16,162.58L386.92,161.99L387.6,162.02L392.36,163.11L393.04,163.4L397.8,166.28L398.48,166.82L403.92,172.36L404.6,173.2L410.72,182.12L411.4,183.26L419.56,198.64L420.24,200.03L439.28,237.88L439.96,238.99L446.76,248.45L447.44,249.22L452.88,254.23L453.56,254.71L459,257.36L459.68,257.54L464.44,257.99L465.12,257.93L469.88,256.75L470.56,256.47L476,253.36L476.68,252.86L482.8,247.45L483.48,246.75L490.96,237.98L491.64,237.1L502.52,221.56L503.2,220.52L529.04,182.02L529.72,181.15L537.88,171.87L538.56,171.21L545.36,165.72L546.04,165.29L551.48,162.77L552.16,162.58L556.92,161.99L557.6,162.02L562.36,163.11L563.04,163.4L567.8,166.28L568.48,166.82L573.92,172.36L574.6,173.2L580.72,182.12L581.4,183.26L589.56,198.64L590.24,200.03L609.28,237.88L609.96,238.99L616.76,248.45L617.44,249.22L622.88,254.23L623.56,254.71L629,257.36L629.68,257.54L634.44,257.99L635.12,257.93L639.88,256.75L640.56,256.47L646,253.36L646.68,252.86L652.8,247.45L653.48,246.75L660.96,237.98L661.64,237.1L672.52,221.56L673.2,220.52L680,210" style="vector-effect: non-scaling-stroke; fill: none; stroke: rgb(0, 0, 255); stroke-opacity: 1; stroke-width: 2px; opacity: 1;"/></g><g class="points"/><g class="text"/></g><g class="trace scatter trace45cef3" style="stroke-miterlimit: 2; opacity: 1;"><g class="fills"/><g class="errorbars"/><g class="lines"><path class="js-line" d="M0,210L19.72,156.65L20.4,154.97L29.92,133.32L30.6,131.93L38.08,118.41L38.76,117.35L44.88,109.37L45.56,108.66L50.32,104.87L51,104.5L55.08,103.33L55.76,103.32L59.16,104.12L59.84,104.47L63.24,107.25L63.92,108.04L67.32,113.27L68,114.61L71.4,123.04L72.08,125.13L75.48,138.11L76.16,141.3L79.56,161.26L80.24,166.2L84.32,203.03L85,210L90.44,258.74L91.12,263.33L95.2,284.87L95.88,287.64L99.96,300.71L100.64,302.39L104.72,310.14L105.4,311.1L109.48,315.12L110.16,315.53L113.56,316.64L114.24,316.68L117.64,316.09L118.32,315.82L122.4,313.22L123.08,312.63L127.84,307.44L128.52,306.55L134.64,297.07L135.32,295.86L142.8,280.9L143.48,279.4L153,256.46L153.68,254.71L169.32,211.91L170,210L189.72,156.65L190.4,154.97L199.92,133.32L200.6,131.93L208.08,118.41L208.76,117.35L214.88,109.37L215.56,108.66L220.32,104.87L221,104.5L225.08,103.33L225.76,103.32L229.16,104.12L229.84,104.47L233.24,107.25L233.92,108.04L237.32,113.27L238,114.61L241.4,123.04L242.08,125.13L245.48,138.11L246.16,141.3L249.56,161.26L250.24,166.2L254.32,203.03L255,210L260.44,258.74L261.12,263.33L265.2,284.87L265.88,287.64L269.96,300.71L270.64,302.39L274.72,310.14L275.4,311.1L279.48,315.12L280.16,315.53L283.56,316.64L284.24,316.68L287.64,316.09L288.32,315.82L292.4,313.22L293.08,312.63L297.84,307.44L298.52,306.55L304.64,297.07L305.32,295.86L312.8,280.9L313.48,279.4L323,256.46L323.68,254.71L339.32,211.91L340,210L359.72,156.65L360.4,154.97L369.92,133.32L370.6,131.93L378.08,118.41L378.76,117.35L384.88,109.37L385.56,108.66L390.32,104.87L391,104.5L395.08,103.33L395.76,103.32L399.16,104.12L399.84,104.47L403.24,107.25L403.92,108.04L407.32,113.27L408,114.61L411.4,123.04L412.08,125.13L415.48,138.11L416.16,141.3L419.56,161.26L420.24,166.2L424.32,203.03L425,210L430.44,258.74L431.12,263.33L435.2,284.87L435.88,287.64L439.96,300.71L440.64,302.39L444.72,310.14L445.4,311.1L449.48,315.12L450.16,315.53L453.56,316.64L454.24,316.68L457.64,316.09L458.32,315.82L462.4,313.22L463.08,312.63L467.84,307.44L468.52,306.55L474.64,297.07L475.32,295.86L482.8,280.9L483.48,279.4L493,256.46L493.68,254.71L509.32,211.91L510,210L529.72,156.65L530.4,154.97L539.92,133.32L540.6,131.93L548.08,118.41L548.76,117.35L554.88,109.37L555.56,108.66L560.32,104.87L561,104.5L565.08,103.33L565.76,103.32L569.16,104.12L569.84,104.47L573.24,107.25L573.92,108.04L577.32,113.27L578,114.61L581.4,123.04L582.08,125.13L585.48,138.11L586.16,141.3L589.56,161.26L590.24,166.2L594.32,203.03L595,210L600.44,258.74L601.12,263.33L605.2,284.87L605.88,287.64L609.96,300.71L610.64,302.39L614.72,310.14L615.4,311.1L619.48,315.12L620.16,315.53L623.56,316.64L624.24,316.68L627.64,316.09L628.32,315.82L632.4,313.22L633.08,312.63L637.84,307.44L638.52,306.55L644.64,297.07L645.32,295.86L652.8,280.9L653.48,279.4L663,256.46L663.68,254.71L679.32,211.91L680,210" style="vector-effect: non-scaling-stroke; fill: none; stroke: rgb(0, 128, 0); stroke-opacity: 1; stroke-width: 2px; opacity: 1;"/></g><g class="points"/><g class="text"/></g><g class="trace scatter trace4aee6f" style="stroke-miterlimit: 2; opacity: 1;"><g class="fills"/><g class="errorbars"/><g class="lines"><path class="js-line" d="M0,210L21.76,138.28L22.44,136.2L33.32,105.39L34,103.64L42.84,83.12L43.52,81.73L50.32,69.6L51,68.57L56.44,61.71L57.12,61.03L61.88,57.57L62.56,57.27L65.96,56.6L66.64,56.65L70.04,57.92L70.72,58.4L73.44,61.31L74.12,62.31L76.84,67.78L77.52,69.62L80.24,79.89L80.92,83.58L82.96,100.69L83.64,110.87L84.32,128.34L85,210L86.36,309.13L87.04,319.31L89.76,340.11L90.44,343.25L93.84,353.84L94.52,355.28L97.92,360.35L98.6,361.02L102,363.07L102.68,363.24L106.08,363.17L106.76,362.98L110.84,360.73L111.52,360.19L116.28,355.17L116.96,354.29L122.4,345.94L123.08,344.74L129.88,331.05L130.56,329.52L139.4,307.38L140.08,305.51L150.96,273.28L151.64,271.13L168.64,214.64L169.32,212.32L191.76,138.28L192.44,136.2L203.32,105.39L204,103.64L212.84,83.12L213.52,81.73L220.32,69.6L221,68.57L226.44,61.71L227.12,61.03L231.88,57.57L232.56,57.27L235.96,56.6L236.64,56.65L240.04,57.92L240.72,58.4L243.44,61.31L244.12,62.31L246.84,67.78L247.52,69.62L250.24,79.89L250.92,83.58L252.96,100.69L253.64,110.87L254.32,128.34L255,210L256.36,309.13L257.04,319.31L259.76,340.11L260.44,343.25L263.84,353.84L264.52,355.28L267.92,360.35L268.6,361.02L272,363.07L272.68,363.24L276.08,363.17L276.76,362.98L280.84,360.73L281.52,360.19L286.28,355.17L286.96,354.29L292.4,345.94L293.08,344.74L299.88,331.05L300.56,329.52L309.4,307.38L310.08,305.51L320.96,273.28L321.64,271.13L338.64,214.64L339.32,212.32L361.76,138.28L362.44,136.2L373.32,105.39L374,103.64L382.84,83.12L383.52,81.73L390.32,69.6L391,68.57L396.44,61.71L397.12,61.03L401.88,57.57L402.56,57.27L405.96,56.6L406.64,56.65L410.04,57.92L410.72,58.4L413.44,61.31L414.12,62.31L416.84,67.78L417.52,69.62L420.24,79.89L420.92,83.58L422.96,100.69L423.64,110.87L424.32,128.34L425,210L426.36,309.13L427.04,319.31L429.76,340.11L430.44,343.25L433.84,353.84L434.52,355.28L437.92,360.35L438.6,361.02L442,363.07L442.68,363.24L446.08,363.17L446.76,362.98L450.84,360.73L451.52,360.19L456.28,355.17L456.96,354.29L462.4,345.94L463.08,344.74L469.88,331.05L470.56,329.52L479.4,307.38L480.08,305.51L490.96,273.28L491.64,271.13L508.64,214.64L509.32,212.32L531.76,138.28L532.44,136.2L543.32,105.39L544,103.64L552.84,83.12L553.52,81.73L560.32,69.6L561,68.57L566.44,61.71L567.12,61.03L571.88,57.57L572.56,57.27L575.96,56.6L576.64,56.65L580.04,57.92L580.72,58.4L583.44,61.31L584.12,62.31L586.84,67.78L587.52,69.62L590.24,79.89L590.92,83.58L592.96,100.69L593.64,110.87L594.32,128.34L595,210L596.36,309.13L597.04,319.31L599.76,340.11L600.44,343.25L603.84,353.84L604.52,355.28L607.92,360.35L608.6,361.02L612,363.07L612.68,363.24L616.08,363.17L616.76,362.98L620.84,360.73L621.52,360.19L626.28,355.17L626.96,354.29L632.4,345.94L633.08,344.74L639.88,331.05L640.56,329.52L649.4,307.38L650.08,305.51L660.96,273.28L661.64,271.13L678.64,214.64L679.32,212.32L680,210" style="vector-effect: non-scaling-stroke; fill: none; stroke: rgb(128, 0, 128); stroke-opacity: 1; stroke-width: 2px; opacity: 1;"/></g><g class="points"/><g class="text"/></g></g></g><g class="overplot"/><path class="xlines-above crisp" d="M79,520.5H760" style="fill: none; stroke-width: 1px; stroke: rgb(68, 68, 68); stroke-opacity: 1;"/><path class="ylines-above crisp" d="M79.5,100V520" style="fill: none; stroke-width: 1px; stroke: rgb(68, 68, 68); stroke-opacity: 1;"/><g class="overlines-above"/><g class="xaxislayer-above"><g class="xtick"><text text-anchor="middle" x="0" y="535.4" transform="translate(80,0)" style="font-family: 'Open Sans', verdana, arial, sans-serif; font-size: 12px; fill: rgb(68, 68, 68); fill-opacity: 1; white-space: pre;">-2π</text></g><g class="xtick"><text text-anchor="middle" x="0" y="535.4" transform="translate(250,0)" style="font-family: 'Open Sans', verdana, arial, sans-serif; font-size: 12px; fill: rgb(68, 68, 68); fill-opacity: 1; white-space: pre;">-1π</text></g><g class="xtick"><text text-anchor="middle" x="0" y="535.4" transform="translate(420,0)" style="font-family: 'Open Sans', verdana, arial, sans-serif; font-size: 12px; fill: rgb(68, 68, 68); fill-opacity: 1; white-space: pre;">0</text></g><g class="xtick"><text text-anchor="middle" x="0" y="535.4" transform="translate(590,0)" style="font-family: 'Open Sans', verdana, arial, sans-serif; font-size: 12px; fill: rgb(68, 68, 68); fill-opacity: 1; white-space: pre;">π</text></g><g class="xtick"><text text-anchor="middle" x="0" y="535.4" transform="translate(760,0)" style="font-family: 'Open Sans', verdana, arial, sans-serif; font-size: 12px; fill: rgb(68, 68, 68); fill-opacity: 1; white-space: pre;">2π</text></g></g><g class="yaxislayer-above"><g class="ytick"><text text-anchor="end" x="76.6" y="4.199999999999999" transform="translate(0,520)" style="font-family: 'Open Sans', verdana, arial, sans-serif; font-size: 12px; fill: rgb(68, 68, 68); fill-opacity: 1; white-space: pre;">−1</text></g><g class="ytick"><text text-anchor="end" x="76.6" y="4.199999999999999" transform="translate(0,415)" style="font-family: 'Open Sans', verdana, arial, sans-serif; font-size: 12px; fill: rgb(68, 68, 68); fill-opacity: 1; white-space: pre;">−0.5</text></g><g class="ytick"><text text-anchor="end" x="76.6" y="4.199999999999999" transform="translate(0,310)" style="font-family: 'Open Sans', verdana, arial, sans-serif; font-size: 12px; fill: rgb(68, 68, 68); fill-opacity: 1; white-space: pre;">0</text></g><g class="ytick"><text text-anchor="end" x="76.6" y="4.199999999999999" transform="translate(0,205)" style="font-family: 'Open Sans', verdana, arial, sans-serif; font-size: 12px; fill: rgb(68, 68, 68); fill-opacity: 1; white-space: pre;">0.5</text></g><g class="ytick"><text text-anchor="end" x="76.6" y="4.199999999999999" transform="translate(0,100)" style="font-family: 'Open Sans', verdana, arial, sans-serif; font-size: 12px; fill: rgb(68, 68, 68); fill-opacity: 1; white-space: pre;">1</text></g></g><g class="overaxes-above"/></g></g><g class="polarlayer"/><g class="ternarylayer"/><g class="geolayer"/><g class="funnelarealayer"/><g class="pielayer"/><g class="treemaplayer"/><g class="sunburstlayer"/><g class="glimages"/><defs id="topdefs-a72b25"><g class="clips"/><clipPath id="legenda72b25"><rect width="114" height="86" x="0" y="0"/></clipPath></defs><g class="layer-above"><g class="imagelayer"/><g class="shapelayer"/></g><g class="infolayer"><g class="legend" pointer-events="all" transform="translate(773.6,100)"><rect class="bg" shape-rendering="crispEdges" style="stroke: rgb(68, 68, 68); stroke-opacity: 1; fill: rgb(255, 255, 255); fill-opacity: 1; stroke-width: 0px;" width="114" height="86" x="0" y="0"/><g class="scrollbox" transform="" clip-path="url('#legenda72b25')"><g class="groups"><g class="traces" transform="translate(0,14.5)" style="opacity: 1;"><text class="legendtext" text-anchor="start" x="40" y="4.680000000000001" style="font-family: 'Open Sans', verdana, arial, sans-serif; font-size: 12px; fill: rgb(68, 68, 68); fill-opacity: 1; white-space: pre;">m=0.4</text><g class="layers" style="opacity: 1;"><g class="legendfill"/><g class="legendlines"><path class="js-line" d="M5,0h30" style="fill: none; stroke: rgb(255, 0, 0); stroke-opacity: 1; stroke-width: 2px;"/></g><g class="legendsymbols"><g class="legendpoints"/></g></g><rect class="legendtoggle" x="0" y="-9.5" width="109" height="19" style="fill: rgb(0, 0, 0); fill-opacity: 0;"/></g><g class="traces" transform="translate(0,33.5)" style="opacity: 1;"><text class="legendtext" text-anchor="start" x="40" y="4.680000000000001" style="font-family: 'Open Sans', verdana, arial, sans-serif; font-size: 12px; fill: rgb(68, 68, 68); fill-opacity: 1; white-space: pre;">m=0.7</text><g class="layers" style="opacity: 1;"><g class="legendfill"/><g class="legendlines"><path class="js-line" d="M5,0h30" style="fill: none; stroke: rgb(0, 0, 255); stroke-opacity: 1; stroke-width: 2px;"/></g><g class="legendsymbols"><g class="legendpoints"/></g></g><rect class="legendtoggle" x="0" y="-9.5" width="109" height="19" style="fill: rgb(0, 0, 0); fill-opacity: 0;"/></g><g class="traces" transform="translate(0,52.5)" style="opacity: 1;"><text class="legendtext" text-anchor="start" x="40" y="4.680000000000001" style="font-family: 'Open Sans', verdana, arial, sans-serif; font-size: 12px; fill: rgb(68, 68, 68); fill-opacity: 1; white-space: pre;">m=0.99</text><g class="layers" style="opacity: 1;"><g class="legendfill"/><g class="legendlines"><path class="js-line" d="M5,0h30" style="fill: none; stroke: rgb(0, 128, 0); stroke-opacity: 1; stroke-width: 2px;"/></g><g class="legendsymbols"><g class="legendpoints"/></g></g><rect class="legendtoggle" x="0" y="-9.5" width="109" height="19" style="fill: rgb(0, 0, 0); fill-opacity: 0;"/></g><g class="traces" transform="translate(0,71.5)" style="opacity: 1;"><text class="legendtext" text-anchor="start" x="40" y="4.680000000000001" style="font-family: 'Open Sans', verdana, arial, sans-serif; font-size: 12px; fill: rgb(68, 68, 68); fill-opacity: 1; white-space: pre;">m=0.999999</text><g class="layers" style="opacity: 1;"><g class="legendfill"/><g class="legendlines"><path class="js-line" d="M5,0h30" style="fill: none; stroke: rgb(128, 0, 128); stroke-opacity: 1; stroke-width: 2px;"/></g><g class="legendsymbols"><g class="legendpoints"/></g></g><rect class="legendtoggle" x="0" y="-9.5" width="109" height="19" style="fill: rgb(0, 0, 0); fill-opacity: 0;"/></g></g></g><rect class="scrollbar" rx="20" ry="3" width="0" height="0" style="fill: rgb(128, 139, 164); fill-opacity: 1;" x="0" y="0"/></g><g class="g-gtitle"><text class="gtitle" x="450" y="50" text-anchor="middle" dy="0em" style="font-family: 'Open Sans', verdana, arial, sans-serif; font-size: 17px; fill: rgb(68, 68, 68); opacity: 1; font-weight: normal; white-space: pre;">Jacobi Zeta Function Z(φ,m)</text></g><g class="g-xtitle"><text class="xtitle" x="420" y="572" text-anchor="middle" style="font-family: 'Open Sans', verdana, arial, sans-serif; font-size: 14px; fill: rgb(68, 68, 68); opacity: 1; font-weight: normal; white-space: pre;">φ</text></g><g class="g-ytitle"><text class="ytitle" transform="rotate(-90,42,310)" x="42" y="310" text-anchor="middle" style="font-family: 'Open Sans', verdana, arial, sans-serif; font-size: 14px; fill: rgb(68, 68, 68); opacity: 1; font-weight: normal; white-space: pre;">Z(φ,m)</text></g><g class="annotation" data-index="0" style="opacity: 1;"><g class="annotation-text-g" transform="rotate(0,689.4000000000001,574)"><g class="cursor-pointer" transform="translate(564,565)"><rect class="bg" x="0.5" y="0.5" width="249" height="17" style="stroke-width: 1px; stroke: rgb(0, 0, 0); stroke-opacity: 0; fill: rgb(0, 0, 0); fill-opacity: 0;"/><text class="annotation-text" text-anchor="middle" x="125" y="13" style="font-family: 'Open Sans', verdana, arial, sans-serif; font-size: 12px; fill: rgb(68, 68, 68); fill-opacity: 1; white-space: pre; pointer-events: all;">Generated using <a xlink:show="new" target="_blank" xlink:href="https://docs.rs/ellip/latest/ellip/fn.jacobi_zeta.html" style="cursor:pointer">jacobi_zeta</a> from <a xlink:show="new" target="_blank" xlink:href="https://crates.io/crates/ellip" style="cursor:pointer">ellip</a> v0.4.0</text></g></g></g></g></svg>