<svg class="main-svg" xmlns="http://www.w3.org/2000/svg" xmlns:xlink="http://www.w3.org/1999/xlink" width="1000" height="600" style="" viewBox="0 0 1000 600"><rect x="0" y="0" width="1000" height="600" style="fill: rgb(255, 255, 255); fill-opacity: 1;"/><defs id="defs-899f56"><g class="clips"><clipPath id="clip899f56xyplot" class="plotclip"><rect width="778" height="420"/></clipPath><clipPath class="axesclip" id="clip899f56x"><rect x="80" y="0" width="778" height="600"/></clipPath><clipPath class="axesclip" id="clip899f56y"><rect x="0" y="100" width="1000" height="420"/></clipPath><clipPath class="axesclip" id="clip899f56xy"><rect x="80" y="100" width="778" height="420"/></clipPath></g><g class="gradients"/></defs><g class="bglayer"/><g class="layer-below"><g class="imagelayer"/><g class="shapelayer"/></g><g class="cartesianlayer"><g class="subplot xy"><g class="layer-subplot"><g class="shapelayer"/><g class="imagelayer"/></g><g class="gridlayer"><g class="x"><path class="xgrid crisp" transform="translate(274.5,0)" d="M0,100v420" style="stroke: rgb(238, 238, 238); stroke-opacity: 1; stroke-width: 1px;"/><path class="xgrid crisp" transform="translate(663.5,0)" d="M0,100v420" style="stroke: rgb(238, 238, 238); stroke-opacity: 1; stroke-width: 1px;"/></g><g class="y"><path class="ygrid crisp" transform="translate(0,415)" d="M80,0h778" style="stroke: rgb(238, 238, 238); stroke-opacity: 1; stroke-width: 1px;"/><path class="ygrid crisp" transform="translate(0,205)" d="M80,0h778" style="stroke: rgb(238, 238, 238); stroke-opacity: 1; stroke-width: 1px;"/></g></g><g class="zerolinelayer"><path class="xzl zl crisp" transform="translate(469,0)" d="M0,100v420" style="stroke: rgb(68, 68, 68); stroke-opacity: 1; stroke-width: 1px;"/><path class="yzl zl crisp" transform="translate(0,310)" d="M80,0h778" style="stroke: rgb(68, 68, 68); stroke-opacity: 1; stroke-width: 1px;"/></g><path class="xlines-below"/><path class="ylines-below"/><g class="overlines-below"/><g class="xaxislayer-below"/><g class="yaxislayer-below"/><g class="overaxes-below"/><g class="plot" transform="translate(80,100)" clip-path="url('#clip899f56xyplot')"><g class="scatterlayer mlayer"><g class="trace scatter trace554949" style="stroke-miterlimit: 2; opacity: 1;"><g class="fills"/><g class="errorbars"/><g class="lines"><path class="js-line" d="M0,210L21.01,195.81L21.78,195.36L32.68,190.01L33.45,189.7L42.79,187.02L43.57,186.88L52.13,186.31L52.9,186.35L60.68,187.55L61.46,187.76L69.24,190.6L70.02,190.96L79.36,196.3L80.13,196.82L91.8,205.56L92.58,206.19L115.92,224.21L116.7,224.71L126.81,230.08L127.59,230.4L135.37,232.81L136.15,232.97L143.93,233.72L144.71,233.71L153.27,232.66L154.04,232.48L162.6,229.68L163.38,229.35L173.49,224.19L174.27,223.73L186.72,215.56L187.5,215.02L217.06,194.92L217.84,194.48L228.73,189.41L229.51,189.13L238.07,186.88L238.85,186.76L246.63,186.31L247.4,186.35L255.18,187.55L255.96,187.76L263.74,190.6L264.52,190.96L273.86,196.3L274.63,196.82L286.3,205.56L287.08,206.19L310.42,224.21L311.2,224.71L321.31,230.08L322.09,230.4L329.87,232.81L330.65,232.97L338.43,233.72L339.21,233.71L347.77,232.66L348.54,232.48L357.1,229.68L357.88,229.35L367.99,224.19L368.77,223.73L381.22,215.56L382,215.02L411.56,194.92L412.34,194.48L423.23,189.41L424.01,189.13L432.57,186.88L433.35,186.76L441.13,186.31L441.9,186.35L449.68,187.55L450.46,187.76L458.24,190.6L459.02,190.96L468.36,196.3L469.13,196.82L480.8,205.56L481.58,206.19L504.92,224.21L505.7,224.71L515.81,230.08L516.59,230.4L524.37,232.81L525.15,232.97L532.93,233.72L533.71,233.71L542.27,232.66L543.04,232.48L551.6,229.68L552.38,229.35L562.49,224.19L563.27,223.73L575.72,215.56L576.5,215.02L606.06,194.92L606.84,194.48L617.73,189.41L618.51,189.13L627.07,186.88L627.85,186.76L635.63,186.31L636.4,186.35L644.18,187.55L644.96,187.76L652.74,190.6L653.52,190.96L662.86,196.3L663.63,196.82L675.3,205.56L676.08,206.19L699.42,224.21L700.2,224.71L710.31,230.08L711.09,230.4L718.87,232.81L719.65,232.97L727.43,233.72L728.21,233.71L736.77,232.66L737.54,232.48L746.1,229.68L746.88,229.35L756.99,224.19L757.77,223.73L770.22,215.56L771,215.02L778,210" style="vector-effect: non-scaling-stroke; fill: none; stroke: rgb(255, 0, 0); stroke-opacity: 1; stroke-width: 2px; opacity: 1;"/></g><g class="points"/><g class="text"/></g><g class="trace scatter trace342fb4" style="stroke-miterlimit: 2; opacity: 1;"><g class="fills"/><g class="errorbars"/><g class="lines"><path class="js-line" d="M0,210L19.45,184.71L20.23,183.8L30.34,173.25L31.12,172.55L38.9,166.64L39.68,166.17L45.9,163.25L46.68,163L52.13,162.01L52.9,161.99L58.35,162.64L59.13,162.86L64.57,165.29L65.35,165.77L70.8,170.04L71.58,170.78L77.8,177.86L78.58,178.88L86.36,190.59L87.14,191.89L101.14,217.15L101.92,218.57L112.81,236.74L113.59,237.88L120.59,246.8L121.37,247.64L127.59,253.18L128.37,253.72L133.82,256.6L134.59,256.89L140.04,257.98L140.82,258.01L146.26,257.42L147.04,257.23L153.27,254.71L154.04,254.28L161.05,249.44L161.82,248.79L169.6,241.38L170.38,240.55L180.5,228.63L181.27,227.64L201.5,200.52L202.28,199.48L216.28,182.02L217.06,181.15L226.4,171.87L227.18,171.21L234.18,166.17L234.96,165.72L241.18,163L241.96,162.77L248.18,161.99L248.96,162.02L254.41,163.11L255.18,163.4L260.63,166.28L261.41,166.82L267.63,172.36L268.41,173.2L275.41,182.12L276.19,183.26L284.75,197.26L285.53,198.64L307.31,236.74L308.09,237.88L315.09,246.8L315.87,247.64L322.09,253.18L322.87,253.72L328.32,256.6L329.09,256.89L334.54,257.98L335.32,258.01L340.76,257.42L341.54,257.23L347.77,254.71L348.54,254.28L355.55,249.44L356.32,248.79L364.1,241.38L364.88,240.55L375,228.63L375.77,227.64L396,200.52L396.78,199.48L410.78,182.02L411.56,181.15L420.9,171.87L421.68,171.21L428.68,166.17L429.46,165.72L435.68,163L436.46,162.77L442.68,161.99L443.46,162.02L448.91,163.11L449.68,163.4L455.13,166.28L455.91,166.82L462.13,172.36L462.91,173.2L469.91,182.12L470.69,183.26L479.25,197.26L480.03,198.64L501.81,236.74L502.59,237.88L509.59,246.8L510.37,247.64L516.59,253.18L517.37,253.72L522.82,256.6L523.59,256.89L529.04,257.98L529.82,258.01L535.26,257.42L536.04,257.23L542.27,254.71L543.04,254.28L550.05,249.44L550.82,248.79L558.6,241.38L559.38,240.55L569.5,228.63L570.27,227.64L590.5,200.52L591.28,199.48L605.28,182.02L606.06,181.15L615.4,171.87L616.18,171.21L623.18,166.17L623.96,165.72L630.18,163L630.96,162.77L637.18,161.99L637.96,162.02L643.41,163.11L644.18,163.4L649.63,166.28L650.41,166.82L656.63,172.36L657.41,173.2L664.41,182.12L665.19,183.26L673.75,197.26L674.53,198.64L696.31,236.74L697.09,237.88L704.09,246.8L704.87,247.64L711.09,253.18L711.87,253.72L717.32,256.6L718.09,256.89L723.54,257.98L724.32,258.01L729.76,257.42L730.54,257.23L736.77,254.71L737.54,254.28L744.55,249.44L745.32,248.79L753.1,241.38L753.88,240.55L764,228.63L764.77,227.64L778,210" style="vector-effect: non-scaling-stroke; fill: none; stroke: rgb(0, 0, 255); stroke-opacity: 1; stroke-width: 2px; opacity: 1;"/></g><g class="points"/><g class="text"/></g><g class="trace scatter tracee21a27" style="stroke-miterlimit: 2; opacity: 1;"><g class="fills"/><g class="errorbars"/><g class="lines"><path class="js-line" d="M0,210L22.56,156.65L23.34,154.97L34.23,133.32L35.01,131.93L43.57,118.41L44.35,117.35L50.57,110.11L51.35,109.37L56.79,105.28L57.57,104.87L62.24,103.4L63.02,103.33L66.91,103.84L67.69,104.12L71.58,106.55L72.35,107.25L76.24,112.03L77.02,113.27L80.91,121.1L81.69,123.04L85.58,135.13L86.36,138.11L90.25,156.67L91.03,161.26L94.92,189.53L95.69,196.17L103.47,258.74L104.25,263.33L108.92,284.87L109.7,287.64L114.37,300.71L115.14,302.39L119.81,310.14L120.59,311.1L124.48,314.63L125.26,315.12L129.15,316.54L129.93,316.64L133.82,316.31L134.59,316.09L139.26,313.76L140.04,313.22L145.49,308.29L146.26,307.44L152.49,299.39L153.27,298.24L161.05,285.27L161.82,283.84L171.94,263.35L172.72,261.65L189.05,223.36L189.83,221.46L217.84,154.97L218.62,153.3L229.51,131.93L230.29,130.57L238.85,117.35L239.62,116.33L245.85,109.37L246.63,108.66L252.07,104.87L252.85,104.5L257.52,103.33L258.3,103.32L262.19,104.12L262.96,104.47L266.85,107.25L267.63,108.04L271.52,113.27L272.3,114.61L276.19,123.04L276.97,125.13L280.86,138.11L281.64,141.3L285.53,161.26L286.3,166.2L290.19,196.17L290.97,203.03L297.2,253.8L297.97,258.74L302.64,281.89L303.42,284.87L308.09,298.9L308.87,300.71L313.53,309.1L314.31,310.14L318.2,314.08L318.98,314.63L322.87,316.38L323.65,316.54L327.54,316.48L328.32,316.31L332.98,314.26L333.76,313.76L339.21,309.11L339.99,308.29L346.21,300.51L346.99,299.39L354.77,286.68L355.55,285.27L365.66,265.03L366.44,263.35L379.66,232.81L380.44,230.93L413.12,153.3L413.9,151.65L423.23,133.32L424.01,131.93L432.57,118.41L433.35,117.35L439.57,110.11L440.35,109.37L445.79,105.28L446.57,104.87L451.24,103.4L452.02,103.33L455.91,103.84L456.69,104.12L460.58,106.55L461.35,107.25L465.24,112.03L466.02,113.27L469.91,121.1L470.69,123.04L474.58,135.13L475.36,138.11L479.25,156.67L480.03,161.26L483.92,189.53L484.69,196.17L492.47,258.74L493.25,263.33L497.92,284.87L498.7,287.64L503.37,300.71L504.14,302.39L508.81,310.14L509.59,311.1L513.48,314.63L514.26,315.12L518.15,316.54L518.93,316.64L522.82,316.31L523.59,316.09L528.26,313.76L529.04,313.22L534.49,308.29L535.26,307.44L541.49,299.39L542.27,298.24L550.05,285.27L550.82,283.84L560.94,263.35L561.72,261.65L578.05,223.36L578.83,221.46L606.84,154.97L607.62,153.3L618.51,131.93L619.29,130.57L627.85,117.35L628.62,116.33L634.85,109.37L635.63,108.66L641.07,104.87L641.85,104.5L646.52,103.33L647.3,103.32L651.19,104.12L651.96,104.47L655.85,107.25L656.63,108.04L660.52,113.27L661.3,114.61L665.19,123.04L665.97,125.13L669.86,138.11L670.64,141.3L674.53,161.26L675.3,166.2L679.19,196.17L679.97,203.03L686.2,253.8L686.97,258.74L691.64,281.89L692.42,284.87L697.09,298.9L697.87,300.71L702.53,309.1L703.31,310.14L707.2,314.08L707.98,314.63L711.87,316.38L712.65,316.54L716.54,316.48L717.32,316.31L721.98,314.26L722.76,313.76L728.21,309.11L728.99,308.29L735.21,300.51L735.99,299.39L743.77,286.68L744.55,285.27L754.66,265.03L755.44,263.35L768.66,232.81L769.44,230.93L778,210" style="vector-effect: non-scaling-stroke; fill: none; stroke: rgb(0, 128, 0); stroke-opacity: 1; stroke-width: 2px; opacity: 1;"/></g><g class="points"/><g class="text"/></g><g class="trace scatter trace90bd10" style="stroke-miterlimit: 2; opacity: 1;"><g class="fills"/><g class="errorbars"/><g class="lines"><path class="js-line" d="M0,210L24.12,140.37L24.9,138.28L35.79,110.78L36.57,108.96L45.9,88.95L46.68,87.45L55.24,72.89L56.02,71.76L62.24,63.99L63.02,63.19L68.46,58.77L69.24,58.32L73.91,56.69L74.69,56.62L78.58,57.19L79.36,57.51L83.25,60.42L84.02,61.31L87.14,66.16L87.91,67.78L91.03,76.75L91.8,79.89L94.14,93.52L94.92,100.69L96.47,128.34L97.25,210L98.81,309.13L99.58,319.31L101.92,336.42L102.7,340.11L105.81,350.38L106.59,352.22L110.48,358.69L111.25,359.58L115.14,362.49L115.92,362.81L119.81,363.38L120.59,363.31L124.48,362.08L125.26,361.68L129.93,358.29L130.7,357.57L136.15,351.43L136.93,350.4L143.15,340.95L143.93,339.62L151.71,324.77L152.49,323.14L161.82,301.73L162.6,299.81L174.27,268.97L175.05,266.81L194.5,210L195.28,207.68L218.62,140.37L219.4,138.28L230.29,110.78L231.07,108.96L240.4,88.95L241.18,87.45L249.74,72.89L250.52,71.76L256.74,63.99L257.52,63.19L262.96,58.77L263.74,58.32L268.41,56.69L269.19,56.62L273.08,57.19L273.86,57.51L277.75,60.42L278.52,61.31L281.64,66.16L282.41,67.78L285.53,76.75L286.3,79.89L288.64,93.52L289.42,100.69L290.97,128.34L291.75,210L293.31,309.13L294.08,319.31L296.42,336.42L297.2,340.11L300.31,350.38L301.09,352.22L304.98,358.69L305.75,359.58L309.64,362.49L310.42,362.81L314.31,363.38L315.09,363.31L318.98,362.08L319.76,361.68L324.43,358.29L325.2,357.57L330.65,351.43L331.43,350.4L337.65,340.95L338.43,339.62L346.21,324.77L346.99,323.14L356.32,301.73L357.1,299.81L368.77,268.97L369.55,266.81L389,210L389.78,207.68L413.12,140.37L413.9,138.28L424.79,110.78L425.57,108.96L434.9,88.95L435.68,87.45L444.24,72.89L445.02,71.76L451.24,63.99L452.02,63.19L457.46,58.77L458.24,58.32L462.91,56.69L463.69,56.62L467.58,57.19L468.36,57.51L472.25,60.42L473.02,61.31L476.14,66.16L476.91,67.78L480.03,76.75L480.8,79.89L483.14,93.52L483.92,100.69L485.47,128.34L486.25,210L487.81,309.13L488.58,319.31L490.92,336.42L491.7,340.11L494.81,350.38L495.59,352.22L499.48,358.69L500.25,359.58L504.14,362.49L504.92,362.81L508.81,363.38L509.59,363.31L513.48,362.08L514.26,361.68L518.93,358.29L519.7,357.57L525.15,351.43L525.93,350.4L532.15,340.95L532.93,339.62L540.71,324.77L541.49,323.14L550.82,301.73L551.6,299.81L563.27,268.97L564.05,266.81L583.5,210L584.28,207.68L607.62,140.37L608.4,138.28L619.29,110.78L620.07,108.96L629.4,88.95L630.18,87.45L638.74,72.89L639.52,71.76L645.74,63.99L646.52,63.19L651.96,58.77L652.74,58.32L657.41,56.69L658.19,56.62L662.08,57.19L662.86,57.51L666.75,60.42L667.52,61.31L670.64,66.16L671.41,67.78L674.53,76.75L675.3,79.89L677.64,93.52L678.42,100.69L679.97,128.34L680.75,210L682.31,309.13L683.08,319.31L685.42,336.42L686.2,340.11L689.31,350.38L690.09,352.22L693.98,358.69L694.75,359.58L698.64,362.49L699.42,362.81L703.31,363.38L704.09,363.31L707.98,362.08L708.76,361.68L713.43,358.29L714.2,357.57L719.65,351.43L720.43,350.4L726.65,340.95L727.43,339.62L735.21,324.77L735.99,323.14L745.32,301.73L746.1,299.81L757.77,268.97L758.55,266.81L778,210" style="vector-effect: non-scaling-stroke; fill: none; stroke: rgb(128, 0, 128); stroke-opacity: 1; stroke-width: 2px; opacity: 1;"/></g><g class="points"/><g class="text"/></g></g></g><g class="overplot"/><path class="xlines-above crisp" d="M79,520.5H858" style="fill: none; stroke-width: 1px; stroke: rgb(68, 68, 68); stroke-opacity: 1;"/><path class="ylines-above crisp" d="M79.5,100V520" style="fill: none; stroke-width: 1px; stroke: rgb(68, 68, 68); stroke-opacity: 1;"/><g class="overlines-above"/><g class="xaxislayer-above"><g class="xtick"><text text-anchor="middle" x="0" y="535.4" transform="translate(80,0)" style="font-family: 'Open Sans', verdana, arial, sans-serif; font-size: 12px; fill: rgb(68, 68, 68); fill-opacity: 1; white-space: pre;">-2π</text></g><g class="xtick"><text text-anchor="middle" x="0" y="535.4" transform="translate(274.5,0)" style="font-family: 'Open Sans', verdana, arial, sans-serif; font-size: 12px; fill: rgb(68, 68, 68); fill-opacity: 1; white-space: pre;">-1π</text></g><g class="xtick"><text text-anchor="middle" x="0" y="535.4" transform="translate(469,0)" style="font-family: 'Open Sans', verdana, arial, sans-serif; font-size: 12px; fill: rgb(68, 68, 68); fill-opacity: 1; white-space: pre;">0</text></g><g class="xtick"><text text-anchor="middle" x="0" y="535.4" transform="translate(663.5,0)" style="font-family: 'Open Sans', verdana, arial, sans-serif; font-size: 12px; fill: rgb(68, 68, 68); fill-opacity: 1; white-space: pre;">π</text></g><g class="xtick"><text text-anchor="middle" x="0" y="535.4" transform="translate(858,0)" style="font-family: 'Open Sans', verdana, arial, sans-serif; font-size: 12px; fill: rgb(68, 68, 68); fill-opacity: 1; white-space: pre;">2π</text></g></g><g class="yaxislayer-above"><g class="ytick"><text text-anchor="end" x="76.6" y="4.199999999999999" transform="translate(0,520)" style="font-family: 'Open Sans', verdana, arial, sans-serif; font-size: 12px; fill: rgb(68, 68, 68); fill-opacity: 1; white-space: pre;">−1</text></g><g class="ytick"><text text-anchor="end" x="76.6" y="4.199999999999999" transform="translate(0,415)" style="font-family: 'Open Sans', verdana, arial, sans-serif; font-size: 12px; fill: rgb(68, 68, 68); fill-opacity: 1; white-space: pre;">−0.5</text></g><g class="ytick"><text text-anchor="end" x="76.6" y="4.199999999999999" transform="translate(0,310)" style="font-family: 'Open Sans', verdana, arial, sans-serif; font-size: 12px; fill: rgb(68, 68, 68); fill-opacity: 1; white-space: pre;">0</text></g><g class="ytick"><text text-anchor="end" x="76.6" y="4.199999999999999" transform="translate(0,205)" style="font-family: 'Open Sans', verdana, arial, sans-serif; font-size: 12px; fill: rgb(68, 68, 68); fill-opacity: 1; white-space: pre;">0.5</text></g><g class="ytick"><text text-anchor="end" x="76.6" y="4.199999999999999" transform="translate(0,100)" style="font-family: 'Open Sans', verdana, arial, sans-serif; font-size: 12px; fill: rgb(68, 68, 68); fill-opacity: 1; white-space: pre;">1</text></g></g><g class="overaxes-above"/></g></g><g class="polarlayer"/><g class="ternarylayer"/><g class="geolayer"/><g class="funnelarealayer"/><g class="pielayer"/><g class="treemaplayer"/><g class="sunburstlayer"/><g class="glimages"/><defs id="topdefs-899f56"><g class="clips"/><clipPath id="legend899f56"><rect width="114" height="86" x="0" y="0"/></clipPath></defs><g class="layer-above"><g class="imagelayer"/><g class="shapelayer"/></g><g class="infolayer"><g class="legend" pointer-events="all" transform="translate(873.5600000000001,100)"><rect class="bg" shape-rendering="crispEdges" style="stroke: rgb(68, 68, 68); stroke-opacity: 1; fill: rgb(255, 255, 255); fill-opacity: 1; stroke-width: 0px;" width="114" height="86" x="0" y="0"/><g class="scrollbox" transform="" clip-path="url('#legend899f56')"><g class="groups"><g class="traces" transform="translate(0,14.5)" style="opacity: 1;"><text class="legendtext" text-anchor="start" x="40" y="4.680000000000001" style="font-family: 'Open Sans', verdana, arial, sans-serif; font-size: 12px; fill: rgb(68, 68, 68); fill-opacity: 1; white-space: pre;">m=0.4</text><g class="layers" style="opacity: 1;"><g class="legendfill"/><g class="legendlines"><path class="js-line" d="M5,0h30" style="fill: none; stroke: rgb(255, 0, 0); stroke-opacity: 1; stroke-width: 2px;"/></g><g class="legendsymbols"><g class="legendpoints"/></g></g><rect class="legendtoggle" x="0" y="-9.5" width="109" height="19" style="fill: rgb(0, 0, 0); fill-opacity: 0;"/></g><g class="traces" transform="translate(0,33.5)" style="opacity: 1;"><text class="legendtext" text-anchor="start" x="40" y="4.680000000000001" style="font-family: 'Open Sans', verdana, arial, sans-serif; font-size: 12px; fill: rgb(68, 68, 68); fill-opacity: 1; white-space: pre;">m=0.7</text><g class="layers" style="opacity: 1;"><g class="legendfill"/><g class="legendlines"><path class="js-line" d="M5,0h30" style="fill: none; stroke: rgb(0, 0, 255); stroke-opacity: 1; stroke-width: 2px;"/></g><g class="legendsymbols"><g class="legendpoints"/></g></g><rect class="legendtoggle" x="0" y="-9.5" width="109" height="19" style="fill: rgb(0, 0, 0); fill-opacity: 0;"/></g><g class="traces" transform="translate(0,52.5)" style="opacity: 1;"><text class="legendtext" text-anchor="start" x="40" y="4.680000000000001" style="font-family: 'Open Sans', verdana, arial, sans-serif; font-size: 12px; fill: rgb(68, 68, 68); fill-opacity: 1; white-space: pre;">m=0.99</text><g class="layers" style="opacity: 1;"><g class="legendfill"/><g class="legendlines"><path class="js-line" d="M5,0h30" style="fill: none; stroke: rgb(0, 128, 0); stroke-opacity: 1; stroke-width: 2px;"/></g><g class="legendsymbols"><g class="legendpoints"/></g></g><rect class="legendtoggle" x="0" y="-9.5" width="109" height="19" style="fill: rgb(0, 0, 0); fill-opacity: 0;"/></g><g class="traces" transform="translate(0,71.5)" style="opacity: 1;"><text class="legendtext" text-anchor="start" x="40" y="4.680000000000001" style="font-family: 'Open Sans', verdana, arial, sans-serif; font-size: 12px; fill: rgb(68, 68, 68); fill-opacity: 1; white-space: pre;">m=0.999999</text><g class="layers" style="opacity: 1;"><g class="legendfill"/><g class="legendlines"><path class="js-line" d="M5,0h30" style="fill: none; stroke: rgb(128, 0, 128); stroke-opacity: 1; stroke-width: 2px;"/></g><g class="legendsymbols"><g class="legendpoints"/></g></g><rect class="legendtoggle" x="0" y="-9.5" width="109" height="19" style="fill: rgb(0, 0, 0); fill-opacity: 0;"/></g></g></g><rect class="scrollbar" rx="20" ry="3" width="0" height="0" style="fill: rgb(128, 139, 164); fill-opacity: 1;" x="0" y="0"/></g><g class="g-gtitle"><text class="gtitle" x="500" y="50" text-anchor="middle" dy="0em" style="font-family: 'Open Sans', verdana, arial, sans-serif; font-size: 17px; fill: rgb(68, 68, 68); opacity: 1; font-weight: normal; white-space: pre;">Jacobi Zeta Function Z(φ,m)</text></g><g class="g-xtitle"><text class="xtitle" x="469" y="572" text-anchor="middle" style="font-family: 'Open Sans', verdana, arial, sans-serif; font-size: 14px; fill: rgb(68, 68, 68); opacity: 1; font-weight: normal; white-space: pre;">φ</text></g><g class="g-ytitle"><text class="ytitle" transform="rotate(-90,42,310)" x="42" y="310" text-anchor="middle" style="font-family: 'Open Sans', verdana, arial, sans-serif; font-size: 14px; fill: rgb(68, 68, 68); opacity: 1; font-weight: normal; white-space: pre;">Z(φ,m)</text></g><g class="annotation" data-index="0" style="opacity: 1;"><g class="annotation-text-g" transform="rotate(0,795.24,574)"><g class="cursor-pointer" transform="translate(670,565)"><rect class="bg" x="0.5" y="0.5" width="249" height="17" style="stroke-width: 1px; stroke: rgb(0, 0, 0); stroke-opacity: 0; fill: rgb(0, 0, 0); fill-opacity: 0;"/><text class="annotation-text" text-anchor="middle" x="125" y="13" style="font-family: 'Open Sans', verdana, arial, sans-serif; font-size: 12px; fill: rgb(68, 68, 68); fill-opacity: 1; white-space: pre; pointer-events: all;">Generated using <a xlink:show="new" target="_blank" xlink:href="https://docs.rs/ellip/latest/ellip/fn.jacobi_zeta.html" style="cursor:pointer">jacobi_zeta</a> from <a xlink:show="new" target="_blank" xlink:href="https://crates.io/crates/ellip" style="cursor:pointer">ellip</a> v0.4.0</text></g></g></g></g></svg>